<svg preserveAspectRatio="none" width="100%" height="100%" overflow="visible" style="display: block;" viewBox="0 0 40 40" fill="none" xmlns="http://www.w3.org/2000/svg">
<g id="check-bold 1">
<path id="Vector" d="M36.3266 12.5766L16.3266 32.5766C16.1524 32.7514 15.9454 32.8901 15.7175 32.9847C15.4896 33.0793 15.2452 33.128 14.9984 33.128C14.7517 33.128 14.5073 33.0793 14.2794 32.9847C14.0515 32.8901 13.8445 32.7514 13.6703 32.5766L4.92031 23.8266C4.7459 23.6522 4.60755 23.4451 4.51316 23.2172C4.41877 22.9893 4.37018 22.7451 4.37018 22.4984C4.37018 22.2518 4.41877 22.0075 4.51316 21.7797C4.60755 21.5518 4.7459 21.3447 4.92031 21.1703C5.09472 20.9959 5.30178 20.8576 5.52966 20.7632C5.75754 20.6688 6.00178 20.6202 6.24844 20.6202C6.49509 20.6202 6.73933 20.6688 6.96721 20.7632C7.19509 20.8576 7.40215 20.9959 7.57656 21.1703L15 28.5938L33.6734 9.92344C34.0257 9.5712 34.5034 9.37331 35.0016 9.37331C35.4997 9.37331 35.9774 9.5712 36.3297 9.92344C36.6819 10.2757 36.8798 10.7534 36.8798 11.2516C36.8798 11.7497 36.6819 12.2274 36.3297 12.5797L36.3266 12.5766Z" fill="var(--fill-0, black)"/>
</g>
</svg>
