<svg preserveAspectRatio="none" width="100%" height="100%" overflow="visible" style="display: block;" viewBox="0 0 24 24" fill="none" xmlns="http://www.w3.org/2000/svg">
<g id="graduation-cap-fill 1">
<path id="Vector" d="M16.5 19.4288C17.0174 19.2249 17.5188 18.9827 18 18.7041V22.5C18 22.6989 17.921 22.8897 17.7803 23.0303C17.6397 23.171 17.4489 23.25 17.25 23.25C17.0511 23.25 16.8603 23.171 16.7197 23.0303C16.579 22.8897 16.5 22.6989 16.5 22.5V19.4288ZM17.6025 11.1384L12.3525 8.33813C12.1773 8.24866 11.974 8.23158 11.7864 8.29057C11.5988 8.34956 11.4418 8.47989 11.3494 8.65349C11.2569 8.82709 11.2364 9.03006 11.2921 9.21868C11.3479 9.4073 11.4755 9.56646 11.6475 9.66188L16.0312 12L17.625 11.1506L17.6025 11.1384ZM23.6025 8.33813L12.3525 2.33813C12.244 2.28035 12.1229 2.25012 12 2.25012C11.8771 2.25012 11.756 2.28035 11.6475 2.33813L0.3975 8.33813C0.277504 8.40208 0.177151 8.49744 0.107175 8.61403C0.0371993 8.73061 0.000234297 8.86403 0.000234297 9C0.000234297 9.13597 0.0371993 9.26939 0.107175 9.38597C0.177151 9.50256 0.277504 9.59793 0.3975 9.66188L3 11.0503V15.5897C2.99922 15.9581 3.1348 16.3137 3.38063 16.5881C4.60875 17.9559 7.36031 20.25 12 20.25C13.5384 20.2627 15.0653 19.9841 16.5 19.4288V12.2503L16.0312 12L12 14.1497L4.10906 9.9375L2.34375 9L12 3.85031L21.6562 9L19.8956 9.9375H19.89L17.625 11.1506C17.739 11.2165 17.8337 11.3112 17.8996 11.4252C17.9654 11.5393 18 11.6686 18 11.8003V18.7041C18.978 18.1395 19.8618 17.4256 20.6194 16.5881C20.8652 16.3137 21.0008 15.9581 21 15.5897V11.0503L23.6025 9.66188C23.7225 9.59793 23.8228 9.50256 23.8928 9.38597C23.9628 9.26939 23.9998 9.13597 23.9998 9C23.9998 8.86403 23.9628 8.73061 23.8928 8.61403C23.8228 8.49744 23.7225 8.40208 23.6025 8.33813Z" fill="var(--fill-0, black)"/>
</g>
</svg>
