<svg preserveAspectRatio="none" width="100%" height="100%" overflow="visible" style="display: block;" viewBox="0 0 24 24" fill="none" xmlns="http://www.w3.org/2000/svg">
<g id="flower-fill 1">
<path id="Vector" d="M19.7203 12.1275C19.6444 12.0834 19.5609 12.0413 19.4747 12C19.5609 11.9588 19.6444 11.9166 19.7203 11.8725C20.1502 11.6281 20.5276 11.301 20.8306 10.9102C21.1336 10.5193 21.3563 10.0724 21.4859 9.5951C21.6154 9.11782 21.6493 8.61963 21.5856 8.12921C21.5218 7.63878 21.3617 7.16581 21.1144 6.73752C20.8671 6.30923 20.5376 5.93408 20.1447 5.63368C19.7519 5.33327 19.3035 5.11354 18.8254 4.98713C18.3472 4.86072 17.8488 4.83014 17.3588 4.89713C16.8689 4.96413 16.397 5.12738 15.9703 5.3775C15.8944 5.42156 15.8156 5.47125 15.7378 5.52656C15.7453 5.43281 15.75 5.33906 15.75 5.24531C15.75 4.25075 15.3549 3.29692 14.6517 2.59366C13.9484 1.8904 12.9946 1.49531 12 1.49531C11.0054 1.49531 10.0516 1.8904 9.34835 2.59366C8.64509 3.29692 8.25 4.25075 8.25 5.24531C8.25 5.33344 8.25 5.42719 8.26219 5.52656C8.18437 5.47312 8.10562 5.42156 8.02969 5.3775C7.60305 5.12738 7.13115 4.96413 6.64116 4.89713C6.15117 4.83014 5.65276 4.86072 5.17464 4.98713C4.69652 5.11354 4.24812 5.33327 3.85526 5.63368C3.46241 5.93408 3.13285 6.30923 2.88557 6.73752C2.63829 7.16581 2.47817 7.63878 2.41443 8.12921C2.35068 8.61963 2.38457 9.11782 2.51415 9.5951C2.64373 10.0724 2.86643 10.5193 3.16943 10.9102C3.47244 11.301 3.84977 11.6281 4.27969 11.8725C4.35563 11.9166 4.43906 11.9588 4.52531 12C4.43906 12.0413 4.35563 12.0834 4.27969 12.1275C3.84977 12.3719 3.47244 12.699 3.16943 13.0898C2.86643 13.4807 2.64373 13.9276 2.51415 14.4049C2.38457 14.8822 2.35068 15.3804 2.41443 15.8708C2.47817 16.3612 2.63829 16.8342 2.88557 17.2625C3.13285 17.6908 3.46241 18.0659 3.85526 18.3663C4.24812 18.6667 4.69652 18.8865 5.17464 19.0129C5.65276 19.1393 6.15117 19.1699 6.64116 19.1029C7.13115 19.0359 7.60305 18.8726 8.02969 18.6225C8.10562 18.5784 8.18437 18.5288 8.26219 18.4734C8.25469 18.5672 8.25 18.6609 8.25 18.75C8.25 19.7446 8.64509 20.6984 9.34835 21.4017C10.0516 22.1049 11.0054 22.5 12 22.5C12.9946 22.5 13.9484 22.1049 14.6517 21.4017C15.3549 20.6984 15.75 19.7446 15.75 18.75C15.75 18.6619 15.7453 18.5681 15.7378 18.4734C15.8156 18.5269 15.8944 18.5784 15.9703 18.6225C16.5384 18.9516 17.1832 19.1249 17.8397 19.125C18.1696 19.1246 18.498 19.0811 18.8166 18.9956C19.533 18.8036 20.1764 18.4035 20.6654 17.8458C21.1543 17.2881 21.467 16.5979 21.5637 15.8626C21.6604 15.1272 21.5369 14.3797 21.2088 13.7145C20.8807 13.0493 20.3627 12.4964 19.7203 12.1256V12.1275ZM12 14.625C11.4808 14.625 10.9733 14.471 10.5416 14.1826C10.1099 13.8942 9.7735 13.4842 9.57482 13.0045C9.37614 12.5249 9.32415 11.9971 9.42544 11.4879C9.52672 10.9787 9.77673 10.511 10.1438 10.1438C10.511 9.77673 10.9787 9.52672 11.4879 9.42544C11.9971 9.32415 12.5249 9.37614 13.0045 9.57482C13.4842 9.7735 13.8942 10.1099 14.1826 10.5416C14.471 10.9733 14.625 11.4808 14.625 12C14.625 12.6962 14.3484 13.3639 13.8562 13.8562C13.3639 14.3484 12.6962 14.625 12 14.625Z" fill="var(--fill-0, black)"/>
</g>
</svg>
