<svg preserveAspectRatio="none" width="100%" height="100%" overflow="visible" style="display: block;" viewBox="0 0 24 24" fill="none" xmlns="http://www.w3.org/2000/svg">
<g id="airplane-tilt-fill 1">
<path id="Vector" d="M20.205 18.4931C20.2538 18.6272 20.2633 18.7725 20.2324 18.9118C20.2015 19.0511 20.1315 19.1788 20.0306 19.2797L17.7806 21.5297C17.711 21.5995 17.6283 21.6549 17.5372 21.6927C17.4462 21.7305 17.3486 21.75 17.25 21.75C17.2253 21.7514 17.2006 21.7514 17.1759 21.75C17.0655 21.7391 16.9589 21.7039 16.8637 21.6468C16.7685 21.5898 16.6872 21.5123 16.6256 21.42L12.4941 15.2213L10.5 17.2116V19.5C10.4999 19.6986 10.421 19.8891 10.2806 20.0297C10.2806 20.0297 8.96813 21.3478 8.79188 21.5184C8.71861 21.5952 8.62973 21.6553 8.53125 21.6947C8.3477 21.7695 8.14202 21.7685 7.95915 21.6921C7.77628 21.6157 7.63109 21.47 7.55531 21.2869L7.54969 21.2728L6.17156 17.8266L2.71875 16.4456C2.60357 16.3995 2.50161 16.3256 2.42202 16.2305C2.34243 16.1353 2.28768 16.0219 2.26269 15.9004C2.2377 15.7788 2.24325 15.653 2.27883 15.5342C2.31441 15.4153 2.37891 15.3072 2.46656 15.2194L3.96656 13.7194C4.0366 13.6494 4.1198 13.594 4.21135 13.5564C4.3029 13.5187 4.40101 13.4996 4.5 13.5H6.7875L8.78156 11.5059L2.58375 7.37344C2.49131 7.3119 2.41369 7.23061 2.35649 7.13542C2.29929 7.04023 2.26395 6.93354 2.253 6.82303C2.24206 6.71252 2.25579 6.60096 2.29321 6.4964C2.33063 6.39185 2.3908 6.29691 2.46938 6.21844L4.71938 3.96844C4.82031 3.86755 4.94793 3.79756 5.08725 3.76667C5.22658 3.73578 5.37183 3.74528 5.50594 3.79406L13.5628 6.72375L16.5187 3.76781C17.0111 3.2755 17.6788 2.99893 18.375 2.99893C18.7197 2.99893 19.0611 3.06683 19.3796 3.19875C19.6981 3.33068 19.9875 3.52405 20.2313 3.76781C20.475 4.01158 20.6684 4.30097 20.8003 4.61947C20.9322 4.93796 21.0001 5.27933 21.0001 5.62406C21.0001 5.9688 20.9322 6.31016 20.8003 6.62866C20.6684 6.94715 20.475 7.23655 20.2313 7.48031L17.2753 10.4362L20.205 18.4931Z" fill="var(--fill-0, black)"/>
</g>
</svg>
