<svg preserveAspectRatio="none" width="100%" height="100%" overflow="visible" style="display: block;" viewBox="0 0 23 25" fill="none" xmlns="http://www.w3.org/2000/svg">
<path id="Vector" d="M22.75 3.5V1.75C22.75 1.28587 22.5656 0.840752 22.2374 0.512563C21.9092 0.184374 21.4641 0 21 0H1.75C1.28587 0 0.840752 0.184374 0.512563 0.512563C0.184374 0.840752 0 1.28587 0 1.75V3.5C0 3.96413 0.184374 4.40925 0.512563 4.73744C0.840752 5.06563 1.28587 5.25 1.75 5.25V15.75H0.875C0.642936 15.75 0.420376 15.8422 0.256282 16.0063C0.0921872 16.1704 0 16.3929 0 16.625C0 16.8571 0.0921872 17.0796 0.256282 17.2437C0.420376 17.4078 0.642936 17.5 0.875 17.5H10.5V19.4009C9.91619 19.6073 9.42414 20.0135 9.11082 20.5476C8.79751 21.0817 8.68309 21.7094 8.7878 22.3197C8.89252 22.93 9.20961 23.4837 9.68305 23.8828C10.1565 24.2819 10.7558 24.5008 11.375 24.5008C11.9942 24.5008 12.5935 24.2819 13.067 23.8828C13.5404 23.4837 13.8575 22.93 13.9622 22.3197C14.0669 21.7094 13.9525 21.0817 13.6392 20.5476C13.3259 20.0135 12.8338 19.6073 12.25 19.4009V17.5H21.875C22.1071 17.5 22.3296 17.4078 22.4937 17.2437C22.6578 17.0796 22.75 16.8571 22.75 16.625C22.75 16.3929 22.6578 16.1704 22.4937 16.0063C22.3296 15.8422 22.1071 15.75 21.875 15.75H21V5.25C21.4641 5.25 21.9092 5.06563 22.2374 4.73744C22.5656 4.40925 22.75 3.96413 22.75 3.5ZM8.75 12.25C8.75 12.4821 8.65781 12.7046 8.49372 12.8687C8.32962 13.0328 8.10706 13.125 7.875 13.125C7.64294 13.125 7.42038 13.0328 7.25628 12.8687C7.09219 12.7046 7 12.4821 7 12.25V10.5C7 10.2679 7.09219 10.0454 7.25628 9.88128C7.42038 9.71719 7.64294 9.625 7.875 9.625C8.10706 9.625 8.32962 9.71719 8.49372 9.88128C8.65781 10.0454 8.75 10.2679 8.75 10.5V12.25ZM11.375 22.75C11.2019 22.75 11.0328 22.6987 10.8889 22.6025C10.745 22.5064 10.6328 22.3697 10.5666 22.2098C10.5004 22.05 10.4831 21.874 10.5168 21.7043C10.5506 21.5346 10.6339 21.3787 10.7563 21.2563C10.8787 21.1339 11.0346 21.0506 11.2043 21.0168C11.374 20.9831 11.55 21.0004 11.7098 21.0666C11.8697 21.1328 12.0064 21.245 12.1025 21.3889C12.1987 21.5328 12.25 21.7019 12.25 21.875C12.25 22.1071 12.1578 22.3296 11.9937 22.4937C11.8296 22.6578 11.6071 22.75 11.375 22.75ZM12.25 12.25C12.25 12.4821 12.1578 12.7046 11.9937 12.8687C11.8296 13.0328 11.6071 13.125 11.375 13.125C11.1429 13.125 10.9204 13.0328 10.7563 12.8687C10.5922 12.7046 10.5 12.4821 10.5 12.25V9.625C10.5 9.39294 10.5922 9.17038 10.7563 9.00628C10.9204 8.84219 11.1429 8.75 11.375 8.75C11.6071 8.75 11.8296 8.84219 11.9937 9.00628C12.1578 9.17038 12.25 9.39294 12.25 9.625V12.25ZM15.75 12.25C15.75 12.4821 15.6578 12.7046 15.4937 12.8687C15.3296 13.0328 15.1071 13.125 14.875 13.125C14.6429 13.125 14.4204 13.0328 14.2563 12.8687C14.0922 12.7046 14 12.4821 14 12.25V8.75C14 8.51794 14.0922 8.29538 14.2563 8.13128C14.4204 7.96719 14.6429 7.875 14.875 7.875C15.1071 7.875 15.3296 7.96719 15.4937 8.13128C15.6578 8.29538 15.75 8.51794 15.75 8.75V12.25ZM1.75 3.5V1.75H21V3.5H1.75Z" fill="var(--fill-0, #B1B1B1)"/>
</svg>
