<svg preserveAspectRatio="none" width="100%" height="100%" overflow="visible" style="display: block;" viewBox="0 0 18 18" fill="none" xmlns="http://www.w3.org/2000/svg">
<g id="graduation-cap-fill 1">
<path id="Vector" d="M12.375 14.5716C12.763 14.4187 13.1391 14.237 13.5 14.028V16.875C13.5 17.0242 13.4407 17.1673 13.3352 17.2727C13.2298 17.3782 13.0867 17.4375 12.9375 17.4375C12.7883 17.4375 12.6452 17.3782 12.5398 17.2727C12.4343 17.1673 12.375 17.0242 12.375 16.875V14.5716ZM13.2019 8.35383L9.26438 6.25359C9.13301 6.18649 8.98053 6.17368 8.83981 6.21793C8.69909 6.26217 8.58137 6.35992 8.51203 6.49012C8.44269 6.62032 8.42727 6.77255 8.46909 6.91401C8.51091 7.05547 8.60663 7.17484 8.73563 7.24641L12.0234 9L13.2188 8.36297L13.2019 8.35383ZM17.7019 6.25359L9.26438 1.75359C9.18299 1.71026 9.0922 1.68759 9 1.68759C8.9078 1.68759 8.81701 1.71026 8.73563 1.75359L0.298125 6.25359C0.208128 6.30156 0.132863 6.37308 0.0803812 6.46052C0.0278995 6.54796 0.000175723 6.64802 0.000175723 6.75C0.000175723 6.85198 0.0278995 6.95204 0.0803812 7.03948C0.132863 7.12692 0.208128 7.19844 0.298125 7.24641L2.25 8.28773V11.6923C2.24942 11.9686 2.3511 12.2353 2.53547 12.4411C3.45656 13.467 5.52023 15.1875 9 15.1875C10.1538 15.197 11.299 14.9881 12.375 14.5716V9.18773L12.0234 9L9 10.6123L3.0818 7.45313L1.75781 6.75L9 2.88773L16.2422 6.75L14.9217 7.45313H14.9175L13.2188 8.36297C13.3043 8.41235 13.3753 8.48338 13.4247 8.56891C13.474 8.65445 13.5 8.75147 13.5 8.85023V14.028C14.2335 13.6046 14.8963 13.0692 15.4645 12.4411C15.6489 12.2353 15.7506 11.9686 15.75 11.6923V8.28773L17.7019 7.24641C17.7919 7.19844 17.8671 7.12692 17.9196 7.03948C17.9721 6.95204 17.9998 6.85198 17.9998 6.75C17.9998 6.64802 17.9721 6.54796 17.9196 6.46052C17.8671 6.37308 17.7919 6.30156 17.7019 6.25359Z" fill="var(--fill-0, #00C3D0)"/>
</g>
</svg>
