<svg preserveAspectRatio="none" width="100%" height="100%" overflow="visible" style="display: block;" viewBox="0 0 24 24" fill="none" xmlns="http://www.w3.org/2000/svg">
<g id="heartbeat-fill 2">
<path id="Vector" d="M22.5 9.5625C22.5 16.125 12.7697 21.4369 12.3553 21.6562C12.2461 21.715 12.124 21.7458 12 21.7458C11.876 21.7458 11.7539 21.715 11.6447 21.6562C11.3306 21.4875 5.68687 18.4041 2.95594 14.0728C2.92071 14.0161 2.90127 13.951 2.89963 13.8842C2.89799 13.8174 2.91421 13.7515 2.94661 13.6931C2.97901 13.6347 3.02641 13.586 3.08393 13.552C3.14144 13.5181 3.20697 13.5001 3.27375 13.5H6.75C6.87351 13.5001 6.99512 13.4697 7.10405 13.4114C7.21297 13.3532 7.30583 13.269 7.37438 13.1663L8.25 11.8538L10.6256 15.4163C10.7167 15.5528 10.8499 15.6557 11.005 15.7092C11.1602 15.7627 11.3285 15.7639 11.4844 15.7125C11.6497 15.6565 11.7911 15.5461 11.8856 15.3994L13.1512 13.5H15C15.1028 13.5002 15.2046 13.4793 15.299 13.4385C15.3934 13.3978 15.4784 13.3381 15.5487 13.2631C15.619 13.1881 15.6732 13.0994 15.7078 13.0026C15.7425 12.9058 15.7568 12.8029 15.75 12.7003C15.7332 12.5075 15.6442 12.3282 15.5007 12.1983C15.3573 12.0685 15.1701 11.9976 14.9766 12H12.75C12.6265 11.9999 12.5049 12.0303 12.396 12.0886C12.287 12.1468 12.1942 12.231 12.1256 12.3337L11.25 13.6462L8.87438 10.0837C8.7833 9.94704 8.64986 9.844 8.49455 9.79048C8.33924 9.73696 8.17065 9.73592 8.01469 9.7875C7.84979 9.8438 7.70873 9.95414 7.61438 10.1006L6.34875 12H2.20594C2.12579 12.0002 2.04768 11.9748 1.98307 11.9274C1.91845 11.8799 1.87072 11.8131 1.84688 11.7366C1.62067 11.0339 1.50368 10.3007 1.5 9.5625C1.50174 8.02146 2.11468 6.54404 3.20436 5.45436C4.29404 4.36468 5.77146 3.75174 7.3125 3.75C9.24844 3.75 10.9434 4.5825 12 5.98969C13.0566 4.5825 14.7516 3.75 16.6875 3.75C18.2285 3.75174 19.706 4.36468 20.7956 5.45436C21.8853 6.54404 22.4983 8.02146 22.5 9.5625Z" fill="var(--fill-0, black)"/>
</g>
</svg>
