<svg preserveAspectRatio="none" width="100%" height="100%" overflow="visible" style="display: block;" viewBox="0 0 24 24" fill="none" xmlns="http://www.w3.org/2000/svg">
<g id="motorcycle-fill 1" clip-path="url(#clip0_44_422)">
<path id="Vector" d="M20.25 11.25C20.0427 11.2505 19.8358 11.2677 19.6312 11.3016L19.0856 9.88219C19.4676 9.79453 19.8581 9.75019 20.25 9.75C20.4489 9.75 20.6397 9.67098 20.7803 9.53033C20.921 9.38968 21 9.19891 21 9C21 8.80109 20.921 8.61032 20.7803 8.46967C20.6397 8.32902 20.4489 8.25 20.25 8.25H18.4575L17.2003 4.98094C17.1459 4.83936 17.0498 4.71761 16.9248 4.63175C16.7998 4.54589 16.6517 4.49995 16.5 4.5H13.5C13.3011 4.5 13.1103 4.57902 12.9697 4.71967C12.829 4.86032 12.75 5.05109 12.75 5.25C12.75 5.44891 12.829 5.63968 12.9697 5.78033C13.1103 5.92098 13.3011 6 13.5 6H15.9853L16.8506 8.25H14.25C12.5156 8.25 11.1094 8.65406 10.1841 9.41812C9.96631 9.59378 9.70378 9.70504 9.42613 9.73933C9.14847 9.77363 8.86676 9.72959 8.61281 9.61219C7.62094 9.16125 1.74188 6.78844 1.69406 6.77531C1.50722 6.72039 1.30635 6.7403 1.13393 6.83083C0.961502 6.92135 0.83105 7.0754 0.770162 7.26038C0.709273 7.44536 0.722723 7.64677 0.807666 7.82201C0.892608 7.99725 1.04238 8.13258 1.22531 8.19937C1.22531 8.19937 6.42844 10.2563 7.4625 11.2875C8.26584 12.0876 8.7868 13.1275 8.94656 14.25H7.425C7.23914 13.3395 6.72181 12.5304 5.97331 11.9796C5.22481 11.4288 4.29846 11.1756 3.37386 11.269C2.44925 11.3624 1.59227 11.7958 0.969048 12.4851C0.345825 13.1745 0.000765386 14.0707 0.000765386 15C0.000765386 15.9293 0.345825 16.8255 0.969048 17.5149C1.59227 18.2042 2.44925 18.6376 3.37386 18.731C4.29846 18.8244 5.22481 18.5712 5.97331 18.0204C6.72181 17.4696 7.23914 16.6605 7.425 15.75H12.3113C12.9617 15.7514 13.595 15.5408 14.115 15.15C14.635 14.7592 15.0135 14.2096 15.1931 13.5844C15.3802 12.9193 15.6967 12.2978 16.1245 11.7553C16.5522 11.2128 17.0829 10.7601 17.6859 10.4231L18.2316 11.8416C17.4714 12.3281 16.9122 13.0725 16.6566 13.9381C16.4011 14.8037 16.4662 15.7324 16.8402 16.5538C17.2142 17.3752 17.8718 18.0342 18.6925 18.4098C19.5131 18.7854 20.4417 18.8525 21.3078 18.5986C22.1739 18.3448 22.9194 17.7871 23.4075 17.0279C23.8956 16.2688 24.0935 15.359 23.9649 14.4657C23.8363 13.5724 23.3898 12.7554 22.7074 12.1647C22.0251 11.574 21.1525 11.2492 20.25 11.25ZM3.75 15.75H5.87062C5.6937 16.2504 5.34557 16.6722 4.88776 16.9407C4.42996 17.2093 3.89195 17.3073 3.36883 17.2176C2.8457 17.1278 2.37115 16.856 2.02905 16.4502C1.68694 16.0444 1.4993 15.5308 1.4993 15C1.4993 14.4692 1.68694 13.9556 2.02905 13.5498C2.37115 13.144 2.8457 12.8722 3.36883 12.7824C3.89195 12.6927 4.42996 12.7907 4.88776 13.0593C5.34557 13.3278 5.6937 13.7496 5.87062 14.25H3.75C3.55109 14.25 3.36032 14.329 3.21967 14.4697C3.07902 14.6103 3 14.8011 3 15C3 15.1989 3.07902 15.3897 3.21967 15.5303C3.36032 15.671 3.55109 15.75 3.75 15.75ZM20.25 17.25C19.7904 17.2494 19.342 17.1081 18.9651 16.8451C18.5883 16.5821 18.3009 16.21 18.1419 15.7788C17.9828 15.3476 17.9596 14.8781 18.0753 14.4333C18.1911 13.9885 18.4403 13.5899 18.7894 13.2909L19.5497 15.2691C19.621 15.4548 19.7633 15.6046 19.9451 15.6855C20.1269 15.7663 20.3333 15.7717 20.5191 15.7003C20.7048 15.629 20.8546 15.4867 20.9355 15.3049C21.0163 15.1231 21.0217 14.9167 20.9503 14.7309L20.1891 12.75H20.25C20.8467 12.75 21.419 12.9871 21.841 13.409C22.2629 13.831 22.5 14.4033 22.5 15C22.5 15.5967 22.2629 16.169 21.841 16.591C21.419 17.0129 20.8467 17.25 20.25 17.25Z" fill="var(--fill-0, black)"/>
</g>
<defs>
<clipPath id="clip0_44_422">
<rect width="24" height="24" fill="white"/>
</clipPath>
</defs>
</svg>
