<svg preserveAspectRatio="none" width="100%" height="100%" overflow="visible" style="display: block;" viewBox="0 0 18 18" fill="none" xmlns="http://www.w3.org/2000/svg">
<g id="fork-knife-fill 1">
<path id="Vector" d="M15.1875 2.8125V15.75C15.1875 15.8992 15.1282 16.0423 15.0227 16.1477C14.9173 16.2532 14.7742 16.3125 14.625 16.3125C14.4758 16.3125 14.3327 16.2532 14.2273 16.1477C14.1218 16.0423 14.0625 15.8992 14.0625 15.75V12.375H10.6875C10.5383 12.375 10.3952 12.3157 10.2898 12.2102C10.1843 12.1048 10.125 11.9617 10.125 11.8125C10.1511 10.4651 10.3213 9.12433 10.6327 7.81313C11.3203 4.96617 12.6239 3.05789 14.4035 2.2957C14.4891 2.25906 14.5823 2.24422 14.675 2.25249C14.7677 2.26077 14.8569 2.29191 14.9346 2.34312C15.0123 2.39433 15.076 2.46402 15.1202 2.54594C15.1643 2.62786 15.1875 2.71945 15.1875 2.8125ZM8.42977 2.72039C8.41875 2.64653 8.39314 2.5756 8.35442 2.51175C8.3157 2.44789 8.26466 2.39238 8.20426 2.34846C8.14387 2.30454 8.07533 2.27308 8.00265 2.25592C7.92998 2.23876 7.85461 2.23625 7.78095 2.24853C7.70728 2.2608 7.63681 2.28763 7.57362 2.32743C7.51043 2.36723 7.4558 2.41921 7.41292 2.48035C7.37003 2.54148 7.33975 2.61055 7.32384 2.68351C7.30793 2.75647 7.3067 2.83187 7.32023 2.90531L7.86727 6.1875H6.1875V2.8125C6.1875 2.66332 6.12824 2.52024 6.02275 2.41475C5.91726 2.30926 5.77418 2.25 5.625 2.25C5.47582 2.25 5.33274 2.30926 5.22725 2.41475C5.12176 2.52024 5.0625 2.66332 5.0625 2.8125V6.1875H3.38273L3.92977 2.90531C3.9433 2.83187 3.94207 2.75647 3.92616 2.68351C3.91025 2.61055 3.87997 2.54148 3.83708 2.48035C3.7942 2.41921 3.73957 2.36723 3.67638 2.32743C3.61319 2.28763 3.54272 2.2608 3.46905 2.24853C3.39539 2.23625 3.32002 2.23876 3.24735 2.25592C3.17467 2.27308 3.10613 2.30454 3.04574 2.34846C2.98534 2.39238 2.9343 2.44789 2.89558 2.51175C2.85686 2.5756 2.83125 2.64653 2.82023 2.72039L2.25773 6.09539C2.25269 6.12584 2.2501 6.15664 2.25 6.1875C2.25112 6.98471 2.534 7.75586 3.04866 8.3647C3.56331 8.97353 4.2766 9.38085 5.0625 9.51469V15.75C5.0625 15.8992 5.12176 16.0423 5.22725 16.1477C5.33274 16.2532 5.47582 16.3125 5.625 16.3125C5.77418 16.3125 5.91726 16.2532 6.02275 16.1477C6.12824 16.0423 6.1875 15.8992 6.1875 15.75V9.51469C6.9734 9.38085 7.68669 8.97353 8.20134 8.3647C8.716 7.75586 8.99888 6.98471 9 6.1875C8.9999 6.15664 8.99731 6.12584 8.99227 6.09539L8.42977 2.72039Z" fill="var(--fill-0, #FF8D28)"/>
</g>
</svg>
