<svg preserveAspectRatio="none" width="100%" height="100%" overflow="visible" style="display: block;" viewBox="0 0 24 24" fill="none" xmlns="http://www.w3.org/2000/svg">
<g id="users-three-fill 1">
<path id="Vector" d="M6.01125 13.8563C6.01379 13.9071 6.00598 13.9578 5.98827 14.0055C5.97057 14.0532 5.94335 14.0968 5.90827 14.1336C5.87319 14.1705 5.83099 14.1998 5.78422 14.2198C5.73746 14.2398 5.68711 14.2501 5.63625 14.25H1.5C1.33072 14.2503 1.16633 14.1932 1.03357 14.0882C0.900804 13.9832 0.807472 13.8364 0.76875 13.6716C0.744638 13.5588 0.74575 13.442 0.772005 13.3297C0.79826 13.2174 0.84901 13.1123 0.920625 13.0219C1.58232 12.1444 2.46027 11.4534 3.46875 11.0166C3.02599 10.6129 2.68641 10.109 2.47845 9.54707C2.27048 8.98515 2.20019 8.38159 2.27345 7.78692C2.34671 7.19226 2.5614 6.6238 2.89954 6.12917C3.23767 5.63454 3.6894 5.22813 4.2169 4.94398C4.7444 4.65984 5.33231 4.50622 5.93138 4.49601C6.53046 4.48579 7.12326 4.61928 7.66014 4.88528C8.19702 5.15128 8.66234 5.54205 9.01714 6.02487C9.37194 6.50768 9.60588 7.06849 9.69937 7.66031C9.71145 7.7399 9.69719 7.82125 9.65878 7.89199C9.62036 7.96273 9.55989 8.01898 9.48656 8.05219C8.4463 8.5331 7.56531 9.30154 6.94754 10.2668C6.32976 11.2321 6.00098 12.354 6 13.5C6 13.62 6 13.7381 6.01125 13.8563ZM23.0737 13.0209C22.4136 12.1444 21.5376 11.4539 20.5312 11.0166C20.974 10.6129 21.3136 10.109 21.5216 9.54707C21.7295 8.98515 21.7998 8.38159 21.7265 7.78692C21.6533 7.19226 21.4386 6.6238 21.1005 6.12917C20.7623 5.63454 20.3106 5.22813 19.7831 4.94398C19.2556 4.65984 18.6677 4.50622 18.0686 4.49601C17.4695 4.48579 16.8767 4.61928 16.3399 4.88528C15.803 5.15128 15.3377 5.54205 14.9829 6.02487C14.6281 6.50768 14.3941 7.06849 14.3006 7.66031C14.2886 7.7399 14.3028 7.82125 14.3412 7.89199C14.3796 7.96273 14.4401 8.01898 14.5134 8.05219C15.5537 8.5331 16.4347 9.30154 17.0525 10.2668C17.6702 11.2321 17.999 12.354 18 13.5C18 13.62 18 13.7381 17.9887 13.8563C17.9862 13.9071 17.994 13.9578 18.0117 14.0055C18.0294 14.0532 18.0566 14.0968 18.0917 14.1336C18.1268 14.1705 18.169 14.1998 18.2158 14.2198C18.2625 14.2398 18.3129 14.2501 18.3637 14.25H22.5C22.6693 14.2503 22.8337 14.1932 22.9664 14.0882C23.0992 13.9832 23.1925 13.8364 23.2312 13.6716C23.2555 13.5586 23.2544 13.4416 23.228 13.3291C23.2015 13.2166 23.1505 13.1113 23.0784 13.0209H23.0737ZM14.73 17.0691C15.4768 16.4972 16.0255 15.7056 16.2992 14.8057C16.5729 13.9058 16.5577 12.9428 16.2558 12.0519C15.9538 11.1611 15.3803 10.3873 14.6159 9.83922C13.8515 9.29116 12.9345 8.99642 11.9939 8.99642C11.0533 8.99642 10.1363 9.29116 9.3719 9.83922C8.60746 10.3873 8.03398 11.1611 7.73205 12.0519C7.43011 12.9428 7.41492 13.9058 7.68859 14.8057C7.96226 15.7056 8.51105 16.4972 9.25781 17.0691C7.93269 17.6432 6.82619 18.6265 6.10031 19.875C6.03448 19.989 5.99982 20.1184 5.99983 20.25C5.99984 20.3817 6.03451 20.5111 6.10035 20.6251C6.1662 20.7391 6.2609 20.8338 6.37494 20.8996C6.48898 20.9654 6.61833 21 6.75 21H17.25C17.3817 21 17.511 20.9654 17.6251 20.8996C17.7391 20.8338 17.8338 20.7391 17.8996 20.6251C17.9655 20.5111 18.0002 20.3817 18.0002 20.25C18.0002 20.1184 17.9655 19.989 17.8997 19.875C17.1723 18.6257 16.0637 17.6423 14.7366 17.0691H14.73Z" fill="var(--fill-0, black)"/>
</g>
</svg>
