<svg preserveAspectRatio="none" width="100%" height="100%" overflow="visible" style="display: block;" viewBox="0 0 24 24" fill="none" xmlns="http://www.w3.org/2000/svg">
<g id="popcorn-fill 1">
<path id="Vector" d="M21.5175 6.95719C21.4294 6.87438 21.3227 6.81409 21.2063 6.78144C21.0899 6.74879 20.9673 6.74476 20.8491 6.76969C20.7034 6.24616 20.4558 5.75657 20.1204 5.32904C19.785 4.90151 19.3684 4.54446 18.8946 4.27842C18.4207 4.01237 17.899 3.84256 17.3594 3.77874C16.8197 3.71493 16.2728 3.75837 15.75 3.90656C15.4209 3.1885 14.8926 2.58001 14.2279 2.15341C13.5631 1.72681 12.7899 1.50003 12 1.50003C11.2101 1.50003 10.4369 1.72681 9.77211 2.15341C9.10736 2.58001 8.57906 3.1885 8.25 3.90656C7.72732 3.75817 7.18047 3.71451 6.64087 3.77807C6.10126 3.84164 5.57953 4.01118 5.10564 4.27696C4.63174 4.54274 4.21503 4.89952 3.87942 5.32682C3.54381 5.75411 3.29593 6.2435 3.15 6.76687C3.02679 6.74159 2.89921 6.7477 2.77898 6.78463C2.65875 6.82157 2.54975 6.88814 2.46199 6.97824C2.37423 7.06833 2.31053 7.17905 2.27677 7.30021C2.243 7.42136 2.24024 7.54906 2.26875 7.67156L5.13375 19.8441C5.2113 20.1732 5.39777 20.4664 5.6629 20.6762C5.92802 20.886 6.25626 21.0001 6.59437 21H17.4056C17.7437 21.0001 18.072 20.886 18.3371 20.6762C18.6022 20.4664 18.7887 20.1732 18.8662 19.8441L21.7303 7.67156C21.7602 7.54427 21.7563 7.41138 21.7189 7.28606C21.6816 7.16075 21.6122 7.04738 21.5175 6.95719ZM6.59437 19.5L4.02281 8.5725L7.57125 9.58594L8.89312 19.5H6.59437ZM11.4431 6.915L8.20969 8.20875L4.59375 7.17562C4.69842 6.79696 4.88675 6.44662 5.14486 6.15044C5.40296 5.85426 5.72425 5.61978 6.08504 5.46431C6.44583 5.30884 6.83692 5.23633 7.22946 5.25213C7.62201 5.26794 8.006 5.37165 8.35312 5.55562C8.45522 5.60978 8.56844 5.6396 8.68396 5.64278C8.79948 5.64595 8.91417 5.62239 9.01908 5.57393C9.12399 5.52547 9.21629 5.45342 9.28876 5.3634C9.36123 5.27338 9.41192 5.16784 9.43687 5.055C9.5667 4.47227 9.89128 3.9512 10.3571 3.57776C10.8229 3.20432 11.402 3.00081 11.9991 3.00081C12.5961 3.00081 13.1753 3.20432 13.6411 3.57776C14.1068 3.9512 14.4314 4.47227 14.5612 5.055C14.5862 5.16784 14.6369 5.27338 14.7094 5.3634C14.7818 5.45342 14.8741 5.52547 14.979 5.57393C15.084 5.62239 15.1986 5.64595 15.3142 5.64278C15.4297 5.6396 15.5429 5.60978 15.645 5.55562C15.9922 5.3713 16.3764 5.2673 16.7691 5.25131C17.1619 5.23533 17.5532 5.30776 17.9143 5.46326C18.2753 5.61875 18.5968 5.85335 18.855 6.14973C19.1133 6.44611 19.3016 6.7967 19.4062 7.17562L15.7912 8.20687L12.5578 6.91312C12.1998 6.77054 11.8007 6.77121 11.4431 6.915ZM17.4056 19.5H15.1069L16.4287 9.58594L19.9772 8.5725L17.4056 19.5Z" fill="var(--fill-0, black)"/>
</g>
</svg>
