<svg preserveAspectRatio="none" width="100%" height="100%" overflow="visible" style="display: block;" viewBox="0 0 18 18" fill="none" xmlns="http://www.w3.org/2000/svg">
<g id="shopping-cart-fill 1">
<path id="Vector" d="M16.1817 4.1393C16.1289 4.07611 16.0629 4.02529 15.9883 3.99042C15.9137 3.95555 15.8323 3.93749 15.75 3.9375H4.40719L3.97969 1.58695C3.95614 1.45734 3.88785 1.34011 3.78673 1.25569C3.6856 1.17127 3.55806 1.12502 3.42633 1.125H1.6875C1.53832 1.125 1.39524 1.18426 1.28975 1.28975C1.18426 1.39524 1.125 1.53832 1.125 1.6875C1.125 1.83668 1.18426 1.97976 1.28975 2.08525C1.39524 2.19074 1.53832 2.25 1.6875 2.25H2.95312L4.75031 12.1141C4.80325 12.4067 4.93254 12.68 5.12508 12.9066C4.85933 13.1548 4.66752 13.4717 4.57092 13.8223C4.47431 14.1729 4.47669 14.5434 4.57779 14.8927C4.67888 15.242 4.87475 15.5565 5.14366 15.8012C5.41257 16.046 5.74403 16.2115 6.10127 16.2794C6.45851 16.3474 6.82758 16.315 7.16755 16.186C7.50752 16.0569 7.80511 15.8362 8.02733 15.5484C8.24954 15.2605 8.38769 14.9168 8.42645 14.5552C8.46522 14.1937 8.40309 13.8284 8.24695 13.5H11.4405C11.3147 13.7635 11.2496 14.0518 11.25 14.3438C11.25 14.7331 11.3655 15.1138 11.5818 15.4375C11.7981 15.7613 12.1056 16.0136 12.4653 16.1626C12.8251 16.3116 13.2209 16.3506 13.6028 16.2747C13.9847 16.1987 14.3355 16.0112 14.6109 15.7359C14.8862 15.4605 15.0737 15.1097 15.1497 14.7278C15.2256 14.3459 15.1866 13.9501 15.0376 13.5903C14.8886 13.2306 14.6363 12.9231 14.3125 12.7068C13.9888 12.4905 13.6081 12.375 13.2188 12.375H6.41039C6.27866 12.375 6.15111 12.3287 6.04999 12.2443C5.94887 12.1599 5.88058 12.0427 5.85703 11.913L5.63414 10.6875H13.7904C14.1856 10.6874 14.5682 10.5487 14.8716 10.2954C15.175 10.0422 15.3798 9.69047 15.4505 9.30164L16.3055 4.60055C16.3199 4.51929 16.3164 4.43585 16.295 4.35614C16.2736 4.27642 16.2349 4.20239 16.1817 4.1393ZM7.3125 14.3438C7.3125 14.5106 7.26302 14.6738 7.1703 14.8125C7.07759 14.9513 6.94581 15.0594 6.79164 15.1233C6.63746 15.1871 6.46781 15.2038 6.30414 15.1713C6.14047 15.1387 5.99013 15.0584 5.87213 14.9404C5.75413 14.8224 5.67377 14.672 5.64121 14.5084C5.60866 14.3447 5.62537 14.175 5.68923 14.0209C5.75309 13.8667 5.86123 13.7349 5.99999 13.6422C6.13874 13.5495 6.30187 13.5 6.46875 13.5C6.69253 13.5 6.90714 13.5889 7.06537 13.7471C7.22361 13.9054 7.3125 14.12 7.3125 14.3438ZM14.0625 14.3438C14.0625 14.5106 14.013 14.6738 13.9203 14.8125C13.8276 14.9513 13.6958 15.0594 13.5416 15.1233C13.3875 15.1871 13.2178 15.2038 13.0541 15.1713C12.8905 15.1387 12.7401 15.0584 12.6221 14.9404C12.5041 14.8224 12.4238 14.672 12.3912 14.5084C12.3587 14.3447 12.3754 14.175 12.4392 14.0209C12.5031 13.8667 12.6112 13.7349 12.75 13.6422C12.8887 13.5495 13.0519 13.5 13.2188 13.5C13.4425 13.5 13.6571 13.5889 13.8154 13.7471C13.9736 13.9054 14.0625 14.12 14.0625 14.3438Z" fill="var(--fill-0, #FFCC00)"/>
</g>
</svg>
