<svg preserveAspectRatio="none" width="100%" height="100%" overflow="visible" style="display: block;" viewBox="0 0 18 18" fill="none" xmlns="http://www.w3.org/2000/svg">
<g id="caret-right">
<path id="Vector" d="M12.773 9.39797L7.14797 15.023C7.09571 15.0752 7.03366 15.1167 6.96538 15.145C6.8971 15.1733 6.82391 15.1878 6.75 15.1878C6.67609 15.1878 6.6029 15.1733 6.53462 15.145C6.46634 15.1167 6.40429 15.0752 6.35203 15.023C6.29977 14.9707 6.25831 14.9087 6.23003 14.8404C6.20174 14.7721 6.18719 14.6989 6.18719 14.625C6.18719 14.5511 6.20174 14.4779 6.23003 14.4096C6.25831 14.3413 6.29977 14.2793 6.35203 14.227L11.5798 9L6.35203 3.77297C6.24648 3.66742 6.18719 3.52427 6.18719 3.375C6.18719 3.22573 6.24648 3.08258 6.35203 2.97703C6.45758 2.87148 6.60073 2.81219 6.75 2.81219C6.89927 2.81219 7.04242 2.87148 7.14797 2.97703L12.773 8.60203C12.8253 8.65427 12.8668 8.71631 12.8951 8.7846C12.9234 8.85288 12.9379 8.92608 12.9379 9C12.9379 9.07392 12.9234 9.14712 12.8951 9.2154C12.8668 9.28369 12.8253 9.34573 12.773 9.39797Z" fill="var(--fill-0, black)"/>
</g>
</svg>
