<svg preserveAspectRatio="none" width="100%" height="100%" overflow="visible" style="display: block;" viewBox="0 0 18 18" fill="none" xmlns="http://www.w3.org/2000/svg">
<g id="coffee-fill 1">
<path id="Vector" d="M14.625 5.625H2.25C2.10082 5.625 1.95774 5.68426 1.85225 5.78975C1.74676 5.89524 1.6875 6.03832 1.6875 6.1875V9.5625C1.68918 10.5201 1.89398 11.4665 2.28838 12.3392C2.68277 13.2119 3.25779 13.9909 3.97547 14.625H2.25C2.10082 14.625 1.95774 14.6843 1.85225 14.7898C1.74676 14.8952 1.6875 15.0383 1.6875 15.1875C1.6875 15.3367 1.74676 15.4798 1.85225 15.5852C1.95774 15.6907 2.10082 15.75 2.25 15.75H14.625C14.7742 15.75 14.9173 15.6907 15.0227 15.5852C15.1282 15.4798 15.1875 15.3367 15.1875 15.1875C15.1875 15.0383 15.1282 14.8952 15.0227 14.7898C14.9173 14.6843 14.7742 14.625 14.625 14.625H12.8995C13.761 13.8615 14.4143 12.8915 14.798 11.8062C15.5124 11.7622 16.1832 11.4474 16.6736 10.926C17.1641 10.4046 17.4372 9.71581 17.4375 9V8.4375C17.4375 7.69158 17.1412 6.97621 16.6137 6.44876C16.0863 5.92132 15.3709 5.625 14.625 5.625ZM16.3125 9C16.3122 9.36392 16.1944 9.71802 15.9764 10.0095C15.7585 10.3009 15.4521 10.5141 15.1031 10.6172C15.1589 10.2684 15.1871 9.91573 15.1875 9.5625V6.84703C15.5164 6.96332 15.8012 7.1787 16.0027 7.46353C16.2042 7.74836 16.3124 8.08862 16.3125 8.4375V9ZM7.875 3.9375V1.6875C7.875 1.53832 7.93426 1.39524 8.03975 1.28975C8.14524 1.18426 8.28832 1.125 8.4375 1.125C8.58668 1.125 8.72976 1.18426 8.83525 1.28975C8.94074 1.39524 9 1.53832 9 1.6875V3.9375C9 4.08668 8.94074 4.22976 8.83525 4.33525C8.72976 4.44074 8.58668 4.5 8.4375 4.5C8.28832 4.5 8.14524 4.44074 8.03975 4.33525C7.93426 4.22976 7.875 4.08668 7.875 3.9375ZM10.125 3.9375V1.6875C10.125 1.53832 10.1843 1.39524 10.2898 1.28975C10.3952 1.18426 10.5383 1.125 10.6875 1.125C10.8367 1.125 10.9798 1.18426 11.0852 1.28975C11.1907 1.39524 11.25 1.53832 11.25 1.6875V3.9375C11.25 4.08668 11.1907 4.22976 11.0852 4.33525C10.9798 4.44074 10.8367 4.5 10.6875 4.5C10.5383 4.5 10.3952 4.44074 10.2898 4.33525C10.1843 4.22976 10.125 4.08668 10.125 3.9375ZM5.625 3.9375V1.6875C5.625 1.53832 5.68426 1.39524 5.78975 1.28975C5.89524 1.18426 6.03832 1.125 6.1875 1.125C6.33668 1.125 6.47976 1.18426 6.58525 1.28975C6.69074 1.39524 6.75 1.53832 6.75 1.6875V3.9375C6.75 4.08668 6.69074 4.22976 6.58525 4.33525C6.47976 4.44074 6.33668 4.5 6.1875 4.5C6.03832 4.5 5.89524 4.44074 5.78975 4.33525C5.68426 4.22976 5.625 4.08668 5.625 3.9375Z" fill="var(--fill-0, #AC7F5E)"/>
</g>
</svg>
