<svg preserveAspectRatio="none" width="100%" height="100%" overflow="visible" style="display: block;" viewBox="0 0 24 24" fill="none" xmlns="http://www.w3.org/2000/svg">
<g id="user-sound 1">
<path id="Vector" d="M13.5 15.5325C14.6757 14.8002 15.5809 13.705 16.0787 12.4124C16.5765 11.1198 16.6398 9.70029 16.259 8.36855C15.8782 7.03682 15.074 5.86534 13.9681 5.03135C12.8622 4.19737 11.5148 3.74625 10.1297 3.74625C8.74458 3.74625 7.39715 4.19737 6.29125 5.03135C5.18536 5.86534 4.38117 7.03682 4.00036 8.36855C3.61955 9.70029 3.68283 11.1198 4.18063 12.4124C4.67843 13.705 5.58366 14.8002 6.75937 15.5325C4.82344 16.1663 3.08156 17.3503 1.68094 19.0172C1.55289 19.1695 1.49058 19.3664 1.50772 19.5646C1.52486 19.7629 1.62005 19.9462 1.77234 20.0742C1.92464 20.2023 2.12156 20.2646 2.31979 20.2474C2.51802 20.2303 2.70133 20.1351 2.82938 19.9828C4.71094 17.7366 7.30406 16.5 10.125 16.5C12.9459 16.5 15.5391 17.7366 17.4263 19.9828C17.5543 20.1351 17.7376 20.2303 17.9358 20.2474C18.1341 20.2646 18.331 20.2023 18.4833 20.0742C18.6356 19.9462 18.7308 19.7629 18.7479 19.5646C18.765 19.3664 18.7027 19.1695 18.5747 19.0172C17.1731 17.3503 15.4313 16.1663 13.5 15.5325ZM5.25 10.125C5.25 9.16082 5.53591 8.21829 6.07159 7.4166C6.60726 6.61491 7.36863 5.99006 8.25942 5.62109C9.15021 5.25211 10.1304 5.15557 11.0761 5.34367C12.0217 5.53177 12.8904 5.99607 13.5721 6.67785C14.2539 7.35964 14.7182 8.22828 14.9063 9.17393C15.0944 10.1196 14.9979 11.0998 14.6289 11.9906C14.2599 12.8814 13.6351 13.6427 12.8334 14.1784C12.0317 14.7141 11.0892 15 10.125 15C8.83253 14.9985 7.59342 14.4844 6.6795 13.5705C5.76558 12.6566 5.25149 11.4175 5.25 10.125ZM19.44 6.15C19.9745 7.40707 20.25 8.75902 20.25 10.125C20.25 11.491 19.9745 12.8429 19.44 14.1C19.3823 14.2352 19.2861 14.3505 19.1635 14.4315C19.0408 14.5125 18.897 14.5557 18.75 14.5556C18.6259 14.5557 18.5036 14.525 18.3943 14.4662C18.2849 14.4074 18.1919 14.3224 18.1235 14.2188C18.0551 14.1152 18.0135 13.9962 18.0024 13.8726C17.9913 13.7489 18.0111 13.6244 18.06 13.5103C18.5153 12.4398 18.75 11.2884 18.75 10.125C18.75 8.96164 18.5153 7.81024 18.06 6.73969C17.9818 6.55669 17.9795 6.35012 18.0536 6.16543C18.1277 5.98073 18.2722 5.83304 18.4552 5.75484C18.6382 5.67665 18.8447 5.67435 19.0294 5.74845C19.2141 5.82256 19.3618 5.967 19.44 6.15ZM23.25 10.125C23.2535 11.9026 22.8933 13.6621 22.1916 15.2953C22.1095 15.4723 21.9617 15.6104 21.7795 15.6802C21.5973 15.75 21.3951 15.746 21.2157 15.6692C21.0364 15.5923 20.8941 15.4486 20.819 15.2685C20.7439 15.0884 20.7419 14.8862 20.8134 14.7047C21.4314 13.257 21.75 11.6991 21.75 10.125C21.75 8.55088 21.4314 6.99305 20.8134 5.54531C20.7712 5.45428 20.7477 5.35571 20.7443 5.25542C20.7408 5.15514 20.7576 5.05519 20.7935 4.96149C20.8294 4.86778 20.8837 4.78224 20.9533 4.70992C21.0228 4.63759 21.1062 4.57996 21.1984 4.54043C21.2906 4.50091 21.3899 4.48029 21.4902 4.4798C21.5905 4.47931 21.69 4.49896 21.7826 4.53759C21.8752 4.57622 21.9591 4.63304 22.0293 4.70468C22.0996 4.77633 22.1548 4.86134 22.1916 4.95469C22.8933 6.5879 23.2535 8.34741 23.25 10.125Z" fill="var(--fill-0, black)"/>
</g>
</svg>
