<svg preserveAspectRatio="none" width="100%" height="100%" overflow="visible" style="display: block;" viewBox="0 0 18 18" fill="none" xmlns="http://www.w3.org/2000/svg">
<g id="motorcycle-fill 1" clip-path="url(#clip0_54_888)">
<path id="Vector" d="M15.1875 8.4375C15.032 8.43786 14.8768 8.45079 14.7234 8.47617L14.3142 7.41164C14.6007 7.3459 14.8936 7.31264 15.1875 7.3125C15.3367 7.3125 15.4798 7.25324 15.5852 7.14775C15.6907 7.04226 15.75 6.89918 15.75 6.75C15.75 6.60082 15.6907 6.45774 15.5852 6.35225C15.4798 6.24676 15.3367 6.1875 15.1875 6.1875H13.8431L12.9002 3.7357C12.8594 3.62952 12.7874 3.53821 12.6936 3.47381C12.5998 3.40942 12.4888 3.37496 12.375 3.375H10.125C9.97582 3.375 9.83274 3.43426 9.72725 3.53975C9.62176 3.64524 9.5625 3.78832 9.5625 3.9375C9.5625 4.08668 9.62176 4.22976 9.72725 4.33525C9.83274 4.44074 9.97582 4.5 10.125 4.5H11.989L12.638 6.1875H10.6875C9.38672 6.1875 8.33203 6.49055 7.63805 7.06359C7.47474 7.19534 7.27784 7.27878 7.06959 7.3045C6.86135 7.33022 6.65007 7.29719 6.45961 7.20914C5.7157 6.87094 1.30641 5.09133 1.27055 5.08148C1.13042 5.0403 0.979762 5.05523 0.850444 5.12312C0.721127 5.19102 0.623288 5.30655 0.577621 5.44528C0.531955 5.58402 0.542042 5.73507 0.605749 5.86651C0.669456 5.99794 0.781788 6.09943 0.918984 6.14953C0.918984 6.14953 4.82133 7.69219 5.59687 8.46563C6.19938 9.06569 6.5901 9.84564 6.70992 10.6875H5.56875C5.42935 10.0046 5.04136 9.39779 4.47998 8.9847C3.91861 8.57162 3.22384 8.38169 2.53039 8.45174C1.83694 8.52179 1.1942 8.84684 0.726786 9.36385C0.259369 9.88087 0.000574039 10.553 0.000574039 11.25C0.000574039 11.947 0.259369 12.6191 0.726786 13.1361C1.1942 13.6532 1.83694 13.9782 2.53039 14.0483C3.22384 14.1183 3.91861 13.9284 4.47998 13.5153C5.04136 13.1022 5.42935 12.4954 5.56875 11.8125H9.23344C9.72131 11.8136 10.1962 11.6556 10.5863 11.3625C10.9763 11.0694 11.2601 10.6572 11.3948 10.1883C11.5352 9.68951 11.7725 9.22334 12.0934 8.81648C12.4142 8.40963 12.8122 8.07009 13.2645 7.81734L13.6737 8.88117C13.1036 9.24608 12.6842 9.80436 12.4925 10.4536C12.3008 11.1027 12.3497 11.7993 12.6301 12.4153C12.9106 13.0314 13.4039 13.5256 14.0194 13.8074C14.6348 14.0891 15.3313 14.1393 15.9809 13.949C16.6304 13.7586 17.1896 13.3403 17.5556 12.7709C17.9217 12.2016 18.0701 11.5193 17.9737 10.8493C17.8772 10.1793 17.5424 9.56655 17.0306 9.12353C16.5188 8.68051 15.8644 8.43693 15.1875 8.4375ZM2.8125 11.8125H4.40297C4.27028 12.1878 4.00918 12.5041 3.66582 12.7055C3.32247 12.907 2.91896 12.9805 2.52662 12.9132C2.13428 12.8459 1.77836 12.642 1.52178 12.3377C1.2652 12.0333 1.12448 11.6481 1.12448 11.25C1.12448 10.8519 1.2652 10.4667 1.52178 10.1623C1.77836 9.85796 2.13428 9.65412 2.52662 9.5868C2.91896 9.51949 3.32247 9.59304 3.66582 9.79446C4.00918 9.99588 4.27028 10.3122 4.40297 10.6875H2.8125C2.66332 10.6875 2.52024 10.7468 2.41475 10.8523C2.30926 10.9577 2.25 11.1008 2.25 11.25C2.25 11.3992 2.30926 11.5423 2.41475 11.6477C2.52024 11.7532 2.66332 11.8125 2.8125 11.8125ZM15.1875 12.9375C14.8428 12.9371 14.5065 12.8311 14.2239 12.6338C13.9412 12.4366 13.7257 12.1575 13.6064 11.8341C13.4871 11.5107 13.4697 11.1585 13.5565 10.825C13.6433 10.4914 13.8302 10.1924 14.092 9.9682L14.6623 11.4518C14.7158 11.5911 14.8225 11.7034 14.9588 11.7641C15.0951 11.8247 15.25 11.8288 15.3893 11.7752C15.5286 11.7217 15.6409 11.615 15.7016 11.4787C15.7622 11.3424 15.7663 11.1875 15.7127 11.0482L15.1418 9.5625H15.1875C15.6351 9.5625 16.0643 9.74029 16.3807 10.0568C16.6972 10.3732 16.875 10.8024 16.875 11.25C16.875 11.6976 16.6972 12.1268 16.3807 12.4432C16.0643 12.7597 15.6351 12.9375 15.1875 12.9375Z" fill="var(--fill-0, #34C759)"/>
</g>
<defs>
<clipPath id="clip0_54_888">
<rect width="18" height="18" fill="white"/>
</clipPath>
</defs>
</svg>
