<svg preserveAspectRatio="none" width="100%" height="100%" overflow="visible" style="display: block;" viewBox="0 0 24 24" fill="none" xmlns="http://www.w3.org/2000/svg">
<g id="fork-knife-fill 1">
<path id="Vector" d="M20.25 3.75V21C20.25 21.1989 20.171 21.3897 20.0303 21.5303C19.8897 21.671 19.6989 21.75 19.5 21.75C19.3011 21.75 19.1103 21.671 18.9697 21.5303C18.829 21.3897 18.75 21.1989 18.75 21V16.5H14.25C14.0511 16.5 13.8603 16.421 13.7197 16.2803C13.579 16.1397 13.5 15.9489 13.5 15.75C13.5348 13.9534 13.7617 12.1658 14.1769 10.4175C15.0938 6.62156 16.8319 4.07719 19.2047 3.06094C19.3187 3.01208 19.4431 2.99229 19.5667 3.00332C19.6903 3.01436 19.8092 3.05588 19.9128 3.12416C20.0164 3.19245 20.1014 3.28536 20.1603 3.39459C20.2191 3.50381 20.2499 3.62593 20.25 3.75ZM11.2397 3.62719C11.225 3.52871 11.1908 3.43414 11.1392 3.349C11.0876 3.26385 11.0195 3.18984 10.939 3.13128C10.8585 3.07271 10.7671 3.03077 10.6702 3.00789C10.5733 2.98502 10.4728 2.98167 10.3746 2.99804C10.2764 3.01441 10.1824 3.05017 10.0982 3.10324C10.0139 3.1563 9.94107 3.22562 9.88389 3.30713C9.82671 3.38865 9.78634 3.48073 9.76512 3.57801C9.7439 3.6753 9.74227 3.77583 9.76031 3.87375L10.4897 8.25H8.25V3.75C8.25 3.55109 8.17098 3.36032 8.03033 3.21967C7.88968 3.07902 7.69891 3 7.5 3C7.30109 3 7.11032 3.07902 6.96967 3.21967C6.82902 3.36032 6.75 3.55109 6.75 3.75V8.25H4.51031L5.23969 3.87375C5.25773 3.77583 5.2561 3.6753 5.23488 3.57801C5.21366 3.48073 5.17329 3.38865 5.11611 3.30713C5.05893 3.22562 4.98609 3.1563 4.90184 3.10324C4.81759 3.05017 4.72362 3.01441 4.62541 2.99804C4.52719 2.98167 4.4267 2.98502 4.32979 3.00789C4.23289 3.03077 4.14151 3.07271 4.06098 3.13128C3.98045 3.18984 3.9124 3.26385 3.86077 3.349C3.80915 3.43414 3.775 3.52871 3.76031 3.62719L3.01031 8.12719C3.00358 8.16778 3.00013 8.20885 3 8.25C3.0015 9.31295 3.37867 10.3412 4.06488 11.1529C4.75108 11.9647 5.70214 12.5078 6.75 12.6863V21C6.75 21.1989 6.82902 21.3897 6.96967 21.5303C7.11032 21.671 7.30109 21.75 7.5 21.75C7.69891 21.75 7.88968 21.671 8.03033 21.5303C8.17098 21.3897 8.25 21.1989 8.25 21V12.6863C9.29786 12.5078 10.2489 11.9647 10.9351 11.1529C11.6213 10.3412 11.9985 9.31295 12 8.25C11.9999 8.20885 11.9964 8.16778 11.9897 8.12719L11.2397 3.62719Z" fill="var(--fill-0, black)"/>
</g>
</svg>
