<svg preserveAspectRatio="none" width="100%" height="100%" overflow="visible" style="display: block;" viewBox="0 0 18 18" fill="none" xmlns="http://www.w3.org/2000/svg">
<g id="caret-left 1">
<path id="Vector" d="M11.648 14.227C11.7002 14.2793 11.7417 14.3413 11.77 14.4096C11.7983 14.4779 11.8128 14.5511 11.8128 14.625C11.8128 14.6989 11.7983 14.7721 11.77 14.8404C11.7417 14.9087 11.7002 14.9707 11.648 15.023C11.5957 15.0752 11.5337 15.1167 11.4654 15.145C11.3971 15.1733 11.3239 15.1878 11.25 15.1878C11.1761 15.1878 11.1029 15.1733 11.0346 15.145C10.9663 15.1167 10.9043 15.0752 10.852 15.023L5.22703 9.39797C5.17473 9.34573 5.13324 9.28369 5.10494 9.2154C5.07663 9.14712 5.06206 9.07392 5.06206 9C5.06206 8.92608 5.07663 8.85288 5.10494 8.7846C5.13324 8.71631 5.17473 8.65427 5.22703 8.60203L10.852 2.97703C10.9576 2.87148 11.1007 2.81219 11.25 2.81219C11.3993 2.81219 11.5424 2.87148 11.648 2.97703C11.7535 3.08258 11.8128 3.22573 11.8128 3.375C11.8128 3.52427 11.7535 3.66742 11.648 3.77297L6.42023 9L11.648 14.227Z" fill="var(--fill-0, black)"/>
</g>
</svg>
