<svg preserveAspectRatio="none" width="100%" height="100%" overflow="visible" style="display: block;" viewBox="0 0 18 18" fill="none" xmlns="http://www.w3.org/2000/svg">
<g id="invoice-fill 1">
<path id="Vector" d="M1.96875 9C1.81957 9 1.67649 8.94074 1.571 8.83525C1.46551 8.72976 1.40625 8.58668 1.40625 8.4375C1.40625 8.28832 1.46551 8.14524 1.571 8.03975C1.67649 7.93426 1.81957 7.875 1.96875 7.875H3.9375C4.08668 7.875 4.22976 7.81574 4.33525 7.71025C4.44074 7.60476 4.5 7.46168 4.5 7.3125C4.5 7.16332 4.44074 7.02024 4.33525 6.91475C4.22976 6.80926 4.08668 6.75 3.9375 6.75H2.8125C2.36495 6.75 1.93572 6.57221 1.61926 6.25574C1.30279 5.93928 1.125 5.51005 1.125 5.0625C1.125 4.61495 1.30279 4.18572 1.61926 3.86926C1.93572 3.55279 2.36495 3.375 2.8125 3.375C2.8125 3.22582 2.87176 3.08274 2.97725 2.97725C3.08274 2.87176 3.22582 2.8125 3.375 2.8125C3.52418 2.8125 3.66726 2.87176 3.77275 2.97725C3.87824 3.08274 3.9375 3.22582 3.9375 3.375H4.5C4.64918 3.375 4.79226 3.43426 4.89775 3.53975C5.00324 3.64524 5.0625 3.78832 5.0625 3.9375C5.0625 4.08668 5.00324 4.22976 4.89775 4.33525C4.79226 4.44074 4.64918 4.5 4.5 4.5H2.8125C2.66332 4.5 2.52024 4.55926 2.41475 4.66475C2.30926 4.77024 2.25 4.91332 2.25 5.0625C2.25 5.21168 2.30926 5.35476 2.41475 5.46025C2.52024 5.56574 2.66332 5.625 2.8125 5.625H3.9375C4.38505 5.625 4.81428 5.80279 5.13074 6.11926C5.44721 6.43572 5.625 6.86495 5.625 7.3125C5.625 7.76005 5.44721 8.18928 5.13074 8.50574C4.81428 8.82221 4.38505 9 3.9375 9C3.9375 9.14918 3.87824 9.29226 3.77275 9.39775C3.66726 9.50324 3.52418 9.5625 3.375 9.5625C3.22582 9.5625 3.08274 9.50324 2.97725 9.39775C2.87176 9.29226 2.8125 9.14918 2.8125 9H1.96875ZM15.75 3.375H6.75C6.60082 3.375 6.45774 3.43426 6.35225 3.53975C6.24676 3.64524 6.1875 3.78832 6.1875 3.9375C6.1875 4.08668 6.24676 4.22976 6.35225 4.33525C6.45774 4.44074 6.60082 4.5 6.75 4.5H15.1875V6.75H7.3125C7.16332 6.75 7.02024 6.80926 6.91475 6.91475C6.80926 7.02024 6.75 7.16332 6.75 7.3125C6.75 7.46168 6.80926 7.60476 6.91475 7.71025C7.02024 7.81574 7.16332 7.875 7.3125 7.875H11.25V10.125H5.625C5.47582 10.125 5.33274 10.1843 5.22725 10.2898C5.12176 10.3952 5.0625 10.5383 5.0625 10.6875C5.0625 10.8367 5.12176 10.9798 5.22725 11.0852C5.33274 11.1907 5.47582 11.25 5.625 11.25H11.25V13.5H2.8125V10.6875C2.8125 10.5383 2.75324 10.3952 2.64775 10.2898C2.54226 10.1843 2.39918 10.125 2.25 10.125C2.10082 10.125 1.95774 10.1843 1.85225 10.2898C1.74676 10.3952 1.6875 10.5383 1.6875 10.6875V13.5C1.6875 13.7984 1.80603 14.0845 2.017 14.2955C2.22798 14.5065 2.51413 14.625 2.8125 14.625H15.1875C15.4859 14.625 15.772 14.5065 15.983 14.2955C16.194 14.0845 16.3125 13.7984 16.3125 13.5V3.9375C16.3125 3.78832 16.2532 3.64524 16.1477 3.53975C16.0423 3.43426 15.8992 3.375 15.75 3.375Z" fill="var(--fill-0, #FF2D55)"/>
</g>
</svg>
