<svg preserveAspectRatio="none" width="100%" height="100%" overflow="visible" style="display: block;" viewBox="0 0 18 18" fill="none" xmlns="http://www.w3.org/2000/svg">
<g id="house-fill 1">
<path id="Vector" d="M15.5 8.24948V14.9995C15.5 15.1487 15.4407 15.2917 15.3352 15.3972C15.2298 15.5027 15.0867 15.562 14.9375 15.562H11C10.8508 15.562 10.7077 15.5027 10.6023 15.3972C10.4968 15.2917 10.4375 15.1487 10.4375 14.9995V11.3432C10.4375 11.2686 10.4079 11.1971 10.3551 11.1444C10.3024 11.0916 10.2308 11.062 10.1562 11.062H7.34375C7.26916 11.062 7.19762 11.0916 7.14488 11.1444C7.09213 11.1971 7.0625 11.2686 7.0625 11.3432V14.9995C7.0625 15.1487 7.00324 15.2917 6.89775 15.3972C6.79226 15.5027 6.64918 15.562 6.5 15.562H2.5625C2.41332 15.562 2.27024 15.5027 2.16475 15.3972C2.05926 15.2917 2 15.1487 2 14.9995V8.24948C2.00014 7.95116 2.11876 7.66512 2.32977 7.45424L7.95477 1.82924C8.16572 1.61843 8.45176 1.5 8.75 1.5C9.04824 1.5 9.33428 1.61843 9.54523 1.82924L15.1702 7.45424C15.3812 7.66512 15.4999 7.95116 15.5 8.24948Z" fill="var(--fill-0, #FFCC00)"/>
</g>
</svg>
