<svg preserveAspectRatio="none" width="100%" height="100%" overflow="visible" style="display: block;" viewBox="0 0 18 18" fill="none" xmlns="http://www.w3.org/2000/svg">
<g id="users-three-fill 1">
<path id="Vector" d="M4.50844 10.3922C4.51035 10.4303 4.50448 10.4684 4.4912 10.5041C4.47793 10.5399 4.45751 10.5726 4.4312 10.6002C4.40489 10.6278 4.37324 10.6498 4.33817 10.6648C4.30309 10.6798 4.26534 10.6875 4.22719 10.6875H1.125C0.998041 10.6877 0.87475 10.6449 0.775177 10.5662C0.675603 10.4874 0.605604 10.3773 0.576563 10.2537C0.558479 10.1691 0.559312 10.0815 0.579004 9.9973C0.598695 9.91306 0.636758 9.83422 0.690469 9.76641C1.18674 9.10827 1.8452 8.59007 2.60156 8.26242C2.26949 7.95966 2.01481 7.58173 1.85883 7.1603C1.70286 6.73886 1.65014 6.28619 1.70509 5.84019C1.76004 5.39419 1.92105 4.96785 2.17465 4.59688C2.42825 4.2259 2.76705 3.9211 3.16268 3.70799C3.5583 3.49488 3.99923 3.37967 4.44854 3.37201C4.89784 3.36435 5.34244 3.46446 5.7451 3.66396C6.14776 3.86346 6.49676 4.15654 6.76286 4.51865C7.02895 4.88076 7.20441 5.30137 7.27453 5.74523C7.28359 5.80492 7.27289 5.86594 7.24408 5.91899C7.21527 5.97204 7.16992 6.01423 7.11492 6.03914C6.33473 6.39983 5.67398 6.97615 5.21065 7.70012C4.74732 8.42408 4.50074 9.26547 4.5 10.125C4.5 10.215 4.5 10.3036 4.50844 10.3922ZM17.3053 9.7657C16.8102 9.10833 16.1532 8.59041 15.3984 8.26242C15.7305 7.95966 15.9852 7.58173 16.1412 7.1603C16.2971 6.73886 16.3499 6.28619 16.2949 5.84019C16.24 5.39419 16.0789 4.96785 15.8253 4.59688C15.5717 4.2259 15.2329 3.9211 14.8373 3.70799C14.4417 3.49488 14.0008 3.37967 13.5515 3.37201C13.1022 3.36435 12.6576 3.46446 12.2549 3.66396C11.8522 3.86346 11.5032 4.15654 11.2371 4.51865C10.971 4.88076 10.7956 5.30137 10.7255 5.74523C10.7164 5.80492 10.7271 5.86594 10.7559 5.91899C10.7847 5.97204 10.8301 6.01423 10.8851 6.03914C11.6653 6.39983 12.326 6.97615 12.7893 7.70012C13.2527 8.42408 13.4993 9.26547 13.5 10.125C13.5 10.215 13.5 10.3036 13.4916 10.3922C13.4897 10.4303 13.4955 10.4684 13.5088 10.5041C13.5221 10.5399 13.5425 10.5726 13.5688 10.6002C13.5951 10.6278 13.6268 10.6498 13.6618 10.6648C13.6969 10.6798 13.7347 10.6875 13.7728 10.6875H16.875C17.002 10.6877 17.1252 10.6449 17.2248 10.5662C17.3244 10.4874 17.3944 10.3773 17.4234 10.2537C17.4416 10.1689 17.4408 10.0812 17.421 9.99681C17.4012 9.91242 17.3628 9.83349 17.3088 9.7657H17.3053ZM11.0475 12.8018C11.6076 12.3729 12.0192 11.7792 12.2244 11.1043C12.4297 10.4294 12.4183 9.70707 12.1918 9.03895C11.9654 8.37083 11.5353 7.79046 10.9619 7.37941C10.3886 6.96837 9.70088 6.74731 8.99543 6.74731C8.28998 6.74731 7.60226 6.96837 7.02893 7.37941C6.4556 7.79046 6.02548 8.37083 5.79903 9.03895C5.57259 9.70707 5.56119 10.4294 5.76644 11.1043C5.9717 11.7792 6.38329 12.3729 6.94336 12.8018C5.94952 13.2324 5.11964 13.9699 4.57523 14.9062C4.52586 14.9918 4.49987 15.0888 4.49987 15.1875C4.49988 15.2863 4.52588 15.3833 4.57527 15.4688C4.62465 15.5543 4.69568 15.6253 4.78121 15.6747C4.86673 15.724 4.96375 15.75 5.0625 15.75H12.9375C13.0362 15.75 13.1333 15.724 13.2188 15.6747C13.3043 15.6253 13.3753 15.5543 13.4247 15.4688C13.4741 15.3833 13.5001 15.2863 13.5001 15.1875C13.5001 15.0888 13.4741 14.9918 13.4248 14.9062C12.8792 13.9693 12.0478 13.2317 11.0524 12.8018H11.0475Z" fill="var(--fill-0, #8E8E93)"/>
</g>
</svg>
