<svg preserveAspectRatio="none" width="100%" height="100%" overflow="visible" style="display: block;" viewBox="0 0 18 18" fill="none" xmlns="http://www.w3.org/2000/svg">
<g id="shopping-bag-fill 1">
<path id="Vector" d="M15.1875 2.8125H2.8125C2.51413 2.8125 2.22798 2.93103 2.017 3.142C1.80603 3.35298 1.6875 3.63913 1.6875 3.9375V14.0625C1.6875 14.3609 1.80603 14.647 2.017 14.858C2.22798 15.069 2.51413 15.1875 2.8125 15.1875H15.1875C15.4859 15.1875 15.772 15.069 15.983 14.858C16.194 14.647 16.3125 14.3609 16.3125 14.0625V3.9375C16.3125 3.63913 16.194 3.35298 15.983 3.142C15.772 2.93103 15.4859 2.8125 15.1875 2.8125ZM9 9.5625C8.10518 9.56157 7.24728 9.20569 6.61454 8.57296C5.98181 7.94022 5.62593 7.08232 5.625 6.1875C5.625 6.03832 5.68426 5.89524 5.78975 5.78975C5.89524 5.68426 6.03832 5.625 6.1875 5.625C6.33668 5.625 6.47976 5.68426 6.58525 5.78975C6.69074 5.89524 6.75 6.03832 6.75 6.1875C6.75 6.78424 6.98705 7.35653 7.40901 7.77849C7.83097 8.20045 8.40326 8.4375 9 8.4375C9.59674 8.4375 10.169 8.20045 10.591 7.77849C11.0129 7.35653 11.25 6.78424 11.25 6.1875C11.25 6.03832 11.3093 5.89524 11.4148 5.78975C11.5202 5.68426 11.6633 5.625 11.8125 5.625C11.9617 5.625 12.1048 5.68426 12.2102 5.78975C12.3157 5.89524 12.375 6.03832 12.375 6.1875C12.3741 7.08232 12.0182 7.94022 11.3855 8.57296C10.7527 9.20569 9.89482 9.56157 9 9.5625Z" fill="var(--fill-0, #CB30E0)"/>
</g>
</svg>
