<svg preserveAspectRatio="none" width="100%" height="100%" overflow="visible" style="display: block;" viewBox="0 0 23 23" fill="none" xmlns="http://www.w3.org/2000/svg">
<path id="Vector" d="M21.0701 11.6814C21.0745 11.5239 21.0745 11.3664 21.0701 11.2089L22.702 9.17012C22.7876 9.06307 22.8468 8.93743 22.8749 8.8033C22.903 8.66918 22.8992 8.53033 22.8639 8.39793C22.5959 7.3925 22.1957 6.42705 21.6739 5.52684C21.6055 5.40906 21.5105 5.30887 21.3966 5.23425C21.2827 5.15963 21.1529 5.11263 21.0176 5.09699L18.4232 4.80824C18.3153 4.69449 18.206 4.58512 18.0951 4.48012L17.7889 1.87918C17.7731 1.74379 17.726 1.61395 17.6511 1.50001C17.5763 1.38607 17.4759 1.29119 17.3579 1.22293C16.4578 0.701484 15.4923 0.302046 14.4868 0.0351183C14.3544 -0.000253387 14.2156 -0.00403317 14.0815 0.0240836C13.9473 0.0522003 13.8217 0.111427 13.7146 0.196993L11.6814 1.82012C11.5239 1.82012 11.3664 1.82012 11.2089 1.82012L9.17012 0.191525C9.06307 0.105959 8.93743 0.0467316 8.8033 0.0186149C8.66918 -0.00950184 8.53033 -0.00572226 8.39793 0.0296494C7.3925 0.297648 6.42705 0.697803 5.52684 1.21965C5.40906 1.28804 5.30887 1.38297 5.23425 1.4969C5.15963 1.61083 5.11263 1.74061 5.09699 1.8759L4.80824 4.47465C4.69449 4.5833 4.58512 4.69267 4.48012 4.80277L1.87918 5.10137C1.74379 5.11712 1.61395 5.16429 1.50001 5.2391C1.38607 5.31392 1.29119 5.41432 1.22293 5.53231C0.701591 6.43264 0.301812 7.39807 0.0340245 8.4034C-0.00119758 8.53588 -0.00480008 8.67478 0.0235074 8.80891C0.0518148 8.94304 0.11124 9.06864 0.196993 9.17559L1.82012 11.2089C1.82012 11.3664 1.82012 11.5239 1.82012 11.6814L0.191525 13.7201C0.105959 13.8272 0.0467316 13.9528 0.0186149 14.0869C-0.00950184 14.2211 -0.00572226 14.3599 0.0296494 14.4923C0.297648 15.4977 0.697803 16.4632 1.21965 17.3634C1.28804 17.4812 1.38297 17.5814 1.4969 17.656C1.61083 17.7306 1.74061 17.7776 1.8759 17.7932L4.47028 18.082C4.57892 18.1957 4.6883 18.3051 4.7984 18.4101L5.10137 21.0111C5.11712 21.1464 5.16429 21.2763 5.2391 21.3902C5.31392 21.5042 5.41432 21.599 5.53231 21.6673C6.43264 22.1886 7.39807 22.5884 8.4034 22.8562C8.53588 22.8914 8.67478 22.895 8.80891 22.8667C8.94304 22.8384 9.06864 22.779 9.17559 22.6932L11.2089 21.0701C11.3664 21.0745 11.5239 21.0745 11.6814 21.0701L13.7201 22.702C13.8272 22.7876 13.9528 22.8468 14.0869 22.8749C14.2211 22.903 14.3599 22.8992 14.4923 22.8639C15.4979 22.5963 16.4634 22.1962 17.3634 21.6739C17.4812 21.6055 17.5814 21.5105 17.656 21.3966C17.7306 21.2827 17.7776 21.1529 17.7932 21.0176L18.082 18.4232C18.1957 18.3153 18.3051 18.206 18.4101 18.0951L21.0111 17.7889C21.1464 17.7731 21.2763 17.726 21.3902 17.6511C21.5042 17.5763 21.599 17.4759 21.6673 17.3579C22.1886 16.4576 22.5884 15.4922 22.8562 14.4868C22.8914 14.3544 22.895 14.2155 22.8667 14.0813C22.8384 13.9472 22.779 13.8216 22.6932 13.7146L21.0701 11.6814ZM11.4451 15.8201C10.5798 15.8201 9.73396 15.5635 9.0145 15.0828C8.29503 14.6021 7.73428 13.9188 7.40315 13.1194C7.07201 12.3199 6.98537 11.4403 7.15418 10.5916C7.32299 9.74293 7.73967 8.96338 8.35153 8.35153C8.96338 7.73967 9.74293 7.32299 10.5916 7.15418C11.4403 6.98537 12.3199 7.07201 13.1194 7.40315C13.9188 7.73428 14.6021 8.29503 15.0828 9.0145C15.5635 9.73396 15.8201 10.5798 15.8201 11.4451C15.8201 12.6054 15.3592 13.7182 14.5387 14.5387C13.7182 15.3592 12.6054 15.8201 11.4451 15.8201Z" fill="var(--fill-0, #B1B1B1)"/>
</svg>
