<svg preserveAspectRatio="none" width="100%" height="100%" overflow="visible" style="display: block;" viewBox="0 0 18 18" fill="none" xmlns="http://www.w3.org/2000/svg">
<g id="flower-fill 1">
<path id="Vector" d="M14.7902 9.09563C14.7333 9.06258 14.6707 9.03094 14.606 9C14.6707 8.96906 14.7333 8.93742 14.7902 8.90438C15.1127 8.72105 15.3957 8.47576 15.6229 8.18261C15.8502 7.88947 16.0172 7.55428 16.1144 7.19632C16.2116 6.83837 16.237 6.46472 16.1892 6.09691C16.1414 5.72909 16.0213 5.37436 15.8358 5.05314C15.6504 4.73192 15.4032 4.45056 15.1086 4.22526C14.8139 3.99995 14.4776 3.83515 14.119 3.74035C13.7604 3.64554 13.3866 3.6226 13.0191 3.67285C12.6516 3.7231 12.2977 3.84554 11.9777 4.03312C11.9208 4.06617 11.8617 4.10344 11.8034 4.14492C11.809 4.07461 11.8125 4.0043 11.8125 3.93398C11.8125 3.18806 11.5162 2.47269 10.9887 1.94525C10.4613 1.4178 9.74592 1.12148 9 1.12148C8.25408 1.12148 7.53871 1.4178 7.01126 1.94525C6.48382 2.47269 6.1875 3.18806 6.1875 3.93398C6.1875 4.00008 6.1875 4.07039 6.19664 4.14492C6.13828 4.10484 6.07922 4.06617 6.02227 4.03312C5.70229 3.84554 5.34836 3.7231 4.98087 3.67285C4.61337 3.6226 4.23957 3.64554 3.88098 3.74035C3.52239 3.83515 3.18609 3.99995 2.89145 4.22526C2.59681 4.45056 2.34964 4.73192 2.16418 5.05314C1.97872 5.37436 1.85863 5.72909 1.81082 6.09691C1.76301 6.46472 1.78843 6.83837 1.88561 7.19632C1.9828 7.55428 2.14982 7.88947 2.37708 8.18261C2.60433 8.47576 2.88733 8.72105 3.20977 8.90438C3.26672 8.93742 3.3293 8.96906 3.39398 9C3.3293 9.03094 3.26672 9.06258 3.20977 9.09563C2.88733 9.27895 2.60433 9.52424 2.37708 9.81739C2.14982 10.1105 1.9828 10.4457 1.88561 10.8037C1.78843 11.1616 1.76301 11.5353 1.81082 11.9031C1.85863 12.2709 1.97872 12.6256 2.16418 12.9469C2.34964 13.2681 2.59681 13.5494 2.89145 13.7747C3.18609 14 3.52239 14.1648 3.88098 14.2597C4.23957 14.3545 4.61337 14.3774 4.98087 14.3272C5.34836 14.2769 5.70229 14.1545 6.02227 13.9669C6.07922 13.9338 6.13828 13.8966 6.19664 13.8551C6.19102 13.9254 6.1875 13.9957 6.1875 14.0625C6.1875 14.8084 6.48382 15.5238 7.01126 16.0512C7.53871 16.5787 8.25408 16.875 9 16.875C9.74592 16.875 10.4613 16.5787 10.9887 16.0512C11.5162 15.5238 11.8125 14.8084 11.8125 14.0625C11.8125 13.9964 11.809 13.9261 11.8034 13.8551C11.8617 13.8952 11.9208 13.9338 11.9777 13.9669C12.4038 14.2137 12.8874 14.3437 13.3798 14.3438C13.6272 14.3434 13.8735 14.3108 14.1124 14.2467C14.6497 14.1027 15.1323 13.8026 15.499 13.3843C15.8658 12.9661 16.1002 12.4485 16.1728 11.8969C16.2453 11.3454 16.1527 10.7848 15.9066 10.2859C15.6605 9.78699 15.272 9.37229 14.7902 9.09422V9.09563ZM9 10.9688C8.61062 10.9688 8.22998 10.8533 7.90622 10.637C7.58246 10.4206 7.33012 10.1131 7.18111 9.75341C7.0321 9.39367 6.99311 8.99782 7.06908 8.61592C7.14504 8.23402 7.33255 7.88322 7.60788 7.60788C7.88322 7.33255 8.23402 7.14504 8.61592 7.06908C8.99782 6.99311 9.39367 7.0321 9.75341 7.18111C10.1131 7.33012 10.4206 7.58246 10.637 7.90622C10.8533 8.22998 10.9688 8.61062 10.9688 9C10.9688 9.52215 10.7613 10.0229 10.3921 10.3921C10.0229 10.7613 9.52214 10.9688 9 10.9688Z" fill="var(--fill-0, #FF2D55)"/>
</g>
</svg>
