<svg preserveAspectRatio="none" width="100%" height="100%" overflow="visible" style="display: block;" viewBox="0 0 23 20" fill="none" xmlns="http://www.w3.org/2000/svg">
<path id="Vector" d="M21 0H1.75C1.28587 0 0.840752 0.184374 0.512563 0.512563C0.184374 0.840752 0 1.28587 0 1.75V18.375C7.96165e-05 18.5241 0.0382753 18.6708 0.110961 18.801C0.183646 18.9312 0.288409 19.0407 0.415303 19.119C0.542197 19.1974 0.687011 19.242 0.835997 19.2487C0.984982 19.2553 1.13319 19.2238 1.26656 19.157L4.375 17.6028L7.48344 19.157C7.605 19.2179 7.73907 19.2495 7.875 19.2495C8.01093 19.2495 8.145 19.2179 8.26656 19.157L11.375 17.6028L14.4834 19.157C14.605 19.2179 14.7391 19.2495 14.875 19.2495C15.0109 19.2495 15.145 19.2179 15.2666 19.157L18.375 17.6028L21.4834 19.157C21.6168 19.2238 21.765 19.2553 21.914 19.2487C22.063 19.242 22.2078 19.1974 22.3347 19.119C22.4616 19.0407 22.5664 18.9312 22.639 18.801C22.7117 18.6708 22.7499 18.5241 22.75 18.375V1.75C22.75 1.28587 22.5656 0.840752 22.2374 0.512563C21.9092 0.184374 21.4641 0 21 0ZM16.625 11.375H6.125C5.89294 11.375 5.67038 11.2828 5.50628 11.1187C5.34219 10.9546 5.25 10.7321 5.25 10.5C5.25 10.2679 5.34219 10.0454 5.50628 9.88128C5.67038 9.71719 5.89294 9.625 6.125 9.625H16.625C16.8571 9.625 17.0796 9.71719 17.2437 9.88128C17.4078 10.0454 17.5 10.2679 17.5 10.5C17.5 10.7321 17.4078 10.9546 17.2437 11.1187C17.0796 11.2828 16.8571 11.375 16.625 11.375ZM16.625 7.875H6.125C5.89294 7.875 5.67038 7.78281 5.50628 7.61872C5.34219 7.45462 5.25 7.23206 5.25 7C5.25 6.76794 5.34219 6.54538 5.50628 6.38128C5.67038 6.21719 5.89294 6.125 6.125 6.125H16.625C16.8571 6.125 17.0796 6.21719 17.2437 6.38128C17.4078 6.54538 17.5 6.76794 17.5 7C17.5 7.23206 17.4078 7.45462 17.2437 7.61872C17.0796 7.78281 16.8571 7.875 16.625 7.875Z" fill="var(--fill-0, #B1B1B1)"/>
</svg>
