<svg preserveAspectRatio="none" width="100%" height="100%" overflow="visible" style="display: block;" viewBox="0 0 18 18" fill="none" xmlns="http://www.w3.org/2000/svg">
<g id="airplane-tilt-fill 1">
<path id="Vector" d="M15.1538 13.8698C15.1903 13.9704 15.1975 14.0794 15.1743 14.1839C15.1511 14.2883 15.0986 14.3841 15.023 14.4598L13.3355 16.1473C13.2832 16.1996 13.2212 16.2411 13.1529 16.2695C13.0846 16.2979 13.0114 16.3125 12.9375 16.3125C12.919 16.3135 12.9005 16.3135 12.882 16.3125C12.7991 16.3043 12.7192 16.2779 12.6478 16.2351C12.5764 16.1923 12.5154 16.1342 12.4692 16.065L9.37055 11.4159L7.875 12.9087V14.625C7.87493 14.774 7.81576 14.9169 7.71047 15.0223C7.71047 15.0223 6.72609 16.0109 6.59391 16.1388C6.53896 16.1964 6.4723 16.2414 6.39844 16.271C6.26078 16.3271 6.10652 16.3264 5.96936 16.2691C5.83221 16.2118 5.72332 16.1025 5.66648 15.9652L5.66227 15.9546L4.62867 13.3699L2.03906 12.3342C1.95267 12.2997 1.87621 12.2442 1.81651 12.1728C1.75682 12.1015 1.71576 12.0164 1.69702 11.9253C1.67828 11.8341 1.68243 11.7398 1.70912 11.6506C1.7358 11.5615 1.78418 11.4804 1.84992 11.4145L2.97492 10.2895C3.02745 10.2371 3.08985 10.1955 3.15851 10.1673C3.22718 10.139 3.30076 10.1247 3.375 10.125H5.09063L6.58617 8.62945L1.93781 5.53008C1.86848 5.48393 1.81027 5.42295 1.76737 5.35156C1.72447 5.28018 1.69796 5.20015 1.68975 5.11727C1.68155 5.03439 1.69185 4.95072 1.71991 4.8723C1.74797 4.79389 1.7931 4.72268 1.85203 4.66383L3.53953 2.97633C3.61523 2.90066 3.71095 2.84817 3.81544 2.825C3.91993 2.80184 4.02887 2.80896 4.12945 2.84555L10.1721 5.04281L12.3891 2.82586C12.7583 2.45663 13.2591 2.2492 13.7813 2.2492C14.0398 2.2492 14.2958 2.30012 14.5347 2.39907C14.7736 2.49801 14.9906 2.64303 15.1734 2.82586C15.3563 3.00868 15.5013 3.22573 15.6002 3.4646C15.6992 3.70347 15.7501 3.95949 15.7501 4.21805C15.7501 4.4766 15.6992 4.73262 15.6002 4.97149C15.5013 5.21036 15.3563 5.42741 15.1734 5.61023L12.9565 7.82719L15.1538 13.8698Z" fill="var(--fill-0, #00C8B3)"/>
</g>
</svg>
