<svg preserveAspectRatio="none" width="100%" height="100%" overflow="visible" style="display: block;" viewBox="0 0 18 18" fill="none" xmlns="http://www.w3.org/2000/svg">
<g id="popcorn-fill 1">
<path id="Vector" d="M16.1381 5.21789C16.0721 5.15579 15.992 5.11056 15.9047 5.08608C15.8174 5.06159 15.7255 5.05857 15.6368 5.07727C15.5276 4.68462 15.3418 4.31743 15.0903 3.99678C14.8387 3.67613 14.5263 3.40835 14.1709 3.20881C13.8156 3.00927 13.4243 2.88192 13.0195 2.83406C12.6148 2.7862 12.2046 2.81877 11.8125 2.92992C11.5657 2.39138 11.1695 1.93501 10.6709 1.61506C10.1723 1.2951 9.5924 1.12502 9 1.12502C8.4076 1.12502 7.82765 1.2951 7.32909 1.61506C6.83052 1.93501 6.43429 2.39138 6.1875 2.92992C5.79549 2.81863 5.38535 2.78588 4.98065 2.83355C4.57595 2.88123 4.18465 3.00838 3.82923 3.20772C3.47381 3.40705 3.16127 3.67464 2.90956 3.99511C2.65786 4.31559 2.47194 4.68263 2.3625 5.07516C2.2701 5.05619 2.17441 5.06077 2.08424 5.08847C1.99407 5.11618 1.91231 5.16611 1.84649 5.23368C1.78067 5.30125 1.7329 5.38429 1.70757 5.47515C1.68225 5.56602 1.68018 5.6618 1.70156 5.75367L3.85031 14.883C3.90848 15.1299 4.04833 15.3498 4.24717 15.5072C4.44602 15.6645 4.6922 15.7501 4.94578 15.75H13.0542C13.3078 15.7501 13.554 15.6645 13.7528 15.5072C13.9517 15.3498 14.0915 15.1299 14.1497 14.883L16.2977 5.75367C16.3201 5.6582 16.3172 5.55853 16.2892 5.46455C16.2612 5.37057 16.2091 5.28553 16.1381 5.21789ZM4.94578 14.625L3.01711 6.42937L5.67844 7.18945L6.66984 14.625H4.94578ZM8.58234 5.18625L6.15727 6.15656L3.44531 5.38172C3.52382 5.09772 3.66506 4.83497 3.85864 4.61283C4.05222 4.39069 4.29319 4.21484 4.56378 4.09823C4.83437 3.98163 5.12769 3.92725 5.4221 3.9391C5.71651 3.95095 6.0045 4.02874 6.26484 4.16672C6.34141 4.20733 6.42633 4.2297 6.51297 4.23208C6.59961 4.23447 6.68563 4.21679 6.76431 4.18045C6.843 4.1441 6.91222 4.09006 6.96657 4.02255C7.02092 3.95504 7.05894 3.87588 7.07766 3.79125C7.17502 3.3542 7.41846 2.9634 7.76781 2.68332C8.11715 2.40324 8.55154 2.25061 8.9993 2.25061C9.44706 2.25061 9.88144 2.40324 10.2308 2.68332C10.5801 2.9634 10.8236 3.3542 10.9209 3.79125C10.9397 3.87588 10.9777 3.95504 11.032 4.02255C11.0864 4.09006 11.1556 4.1441 11.2343 4.18045C11.313 4.21679 11.399 4.23447 11.4856 4.23208C11.5723 4.2297 11.6572 4.20733 11.7337 4.16672C11.9941 4.02847 12.2823 3.95048 12.5769 3.93849C12.8714 3.9265 13.1649 3.98082 13.4357 4.09744C13.7065 4.21407 13.9476 4.39001 14.1413 4.6123C14.335 4.83458 14.4762 5.09753 14.5547 5.38172L11.8434 6.15516L9.41836 5.18484C9.14985 5.07791 8.85049 5.07841 8.58234 5.18625ZM13.0542 14.625H11.3302L12.3216 7.18945L14.9829 6.42937L13.0542 14.625Z" fill="var(--fill-0, #00C0E8)"/>
</g>
</svg>
