<svg preserveAspectRatio="none" width="100%" height="100%" overflow="visible" style="display: block;" viewBox="0 0 18 18" fill="none" xmlns="http://www.w3.org/2000/svg">
<g id="heartbeat-fill 2">
<path id="Vector" d="M16.875 7.17188C16.875 12.0938 9.57727 16.0777 9.26648 16.2422C9.18457 16.2863 9.09301 16.3093 9 16.3093C8.90699 16.3093 8.81543 16.2863 8.73352 16.2422C8.49797 16.1156 4.26516 13.803 2.21695 10.5546C2.19053 10.5121 2.17595 10.4632 2.17472 10.4132C2.1735 10.3631 2.18566 10.3136 2.20996 10.2698C2.23426 10.226 2.26981 10.1895 2.31294 10.164C2.35608 10.1386 2.40523 10.1251 2.45531 10.125H5.0625C5.15513 10.1251 5.24634 10.1022 5.32803 10.0586C5.40973 10.0149 5.47937 9.95174 5.53078 9.87469L6.1875 8.89031L7.96922 11.5622C8.03749 11.6646 8.13745 11.7418 8.25378 11.7819C8.37012 11.822 8.4964 11.8229 8.61328 11.7844C8.73727 11.7424 8.84336 11.6596 8.91422 11.5495L9.86344 10.125H11.25C11.3271 10.1252 11.4034 10.1095 11.4742 10.0789C11.545 10.0483 11.6088 10.0035 11.6615 9.9473C11.7143 9.89105 11.7549 9.82456 11.7809 9.75196C11.8068 9.67935 11.8176 9.60218 11.8125 9.52523C11.7999 9.38065 11.7331 9.24617 11.6256 9.14876C11.518 9.05135 11.3775 8.99821 11.2324 9H9.5625C9.46987 8.99994 9.37866 9.02276 9.29696 9.06642C9.21527 9.11009 9.14563 9.17326 9.09422 9.25031L8.4375 10.2347L6.65578 7.56281C6.58747 7.46028 6.48739 7.383 6.37091 7.34286C6.25443 7.30272 6.12799 7.30194 6.01102 7.34063C5.88734 7.38285 5.78155 7.4656 5.71078 7.57547L4.76156 9H1.65445C1.59434 9.00017 1.53576 8.98107 1.4873 8.94551C1.43884 8.90996 1.40304 8.85981 1.38516 8.80242C1.2155 8.27542 1.12776 7.7255 1.125 7.17188C1.1263 6.0161 1.58601 4.90803 2.40327 4.09077C3.22053 3.27351 4.3286 2.8138 5.48438 2.8125C6.93633 2.8125 8.20758 3.43687 9 4.49227C9.79242 3.43687 11.0637 2.8125 12.5156 2.8125C13.6714 2.8138 14.7795 3.27351 15.5967 4.09077C16.414 4.90803 16.8737 6.0161 16.875 7.17188Z" fill="var(--fill-0, #6155F5)"/>
</g>
</svg>
