<svg preserveAspectRatio="none" width="100%" height="100%" overflow="visible" style="display: block;" viewBox="0 0 18 18" fill="none" xmlns="http://www.w3.org/2000/svg">
<g id="gift-fill 1">
<path id="Vector" d="M15.1875 5.0625H12.7209C12.7484 5.0393 12.7765 5.0168 12.8032 4.99219C13.0167 4.80247 13.1889 4.57073 13.3087 4.31146C13.4286 4.05219 13.4938 3.77097 13.5 3.48539C13.5092 3.17297 13.4545 2.86197 13.3392 2.57146C13.2239 2.28095 13.0504 2.01708 12.8295 1.79604C12.6085 1.575 12.3447 1.40145 12.0542 1.28606C11.7637 1.17066 11.4527 1.11586 11.1403 1.125C10.8546 1.13115 10.5733 1.19622 10.3139 1.31611C10.0545 1.43601 9.82261 1.60817 9.63281 1.8218C9.37018 2.12618 9.15667 2.46969 9 2.83992C8.84333 2.46969 8.62982 2.12618 8.36719 1.8218C8.17739 1.60817 7.94553 1.43601 7.68614 1.31611C7.42674 1.19622 7.14539 1.13115 6.85969 1.125C6.54727 1.11586 6.23628 1.17066 5.9458 1.28606C5.65533 1.40145 5.39151 1.575 5.17053 1.79604C4.94956 2.01708 4.77609 2.28095 4.66079 2.57146C4.54548 2.86197 4.49076 3.17297 4.5 3.48539C4.50625 3.77097 4.57136 4.05219 4.69125 4.31146C4.81115 4.57073 4.98325 4.80247 5.1968 4.99219C5.22352 5.01539 5.25164 5.03789 5.27906 5.0625H2.8125C2.51413 5.0625 2.22798 5.18103 2.017 5.39201C1.80603 5.60298 1.6875 5.88913 1.6875 6.1875V8.4375C1.6875 8.73587 1.80603 9.02202 2.017 9.23299C2.22798 9.44397 2.51413 9.5625 2.8125 9.5625V14.0625C2.8125 14.3609 2.93103 14.647 3.142 14.858C3.35298 15.069 3.63913 15.1875 3.9375 15.1875H8.15625C8.23084 15.1875 8.30238 15.1579 8.35512 15.1051C8.40787 15.0524 8.4375 14.9808 8.4375 14.9062V8.4375H2.8125V6.1875H8.4375V8.4375H9.5625V6.1875H15.1875V8.4375H9.5625V14.9062C9.5625 14.9808 9.59213 15.0524 9.64488 15.1051C9.69762 15.1579 9.76916 15.1875 9.84375 15.1875H14.0625C14.3609 15.1875 14.647 15.069 14.858 14.858C15.069 14.647 15.1875 14.3609 15.1875 14.0625V9.5625C15.4859 9.5625 15.772 9.44397 15.983 9.23299C16.194 9.02202 16.3125 8.73587 16.3125 8.4375V6.1875C16.3125 5.88913 16.194 5.60298 15.983 5.39201C15.772 5.18103 15.4859 5.0625 15.1875 5.0625ZM5.94211 4.14844C5.84376 4.05937 5.76488 3.95094 5.71043 3.82994C5.65598 3.70894 5.62713 3.57799 5.6257 3.44531C5.62215 3.28985 5.64965 3.13525 5.70661 2.99055C5.76357 2.84586 5.84883 2.71399 5.9574 2.60267C6.06597 2.49135 6.19567 2.40281 6.33889 2.34226C6.48212 2.2817 6.63598 2.25033 6.79148 2.25H6.82594C6.95862 2.25143 7.08957 2.28028 7.21056 2.33473C7.33156 2.38918 7.44 2.46805 7.52906 2.56641C8.11898 3.23297 8.32711 4.33828 8.40023 5.02172C7.71398 4.9493 6.60938 4.74117 5.94211 4.14844ZM12.0593 4.14844C11.392 4.73906 10.2846 4.94719 9.59836 5.02031C9.68203 4.28133 9.91406 3.19922 10.4766 2.56711C10.5656 2.46876 10.6741 2.38988 10.7951 2.33543C10.9161 2.28098 11.047 2.25213 11.1797 2.2507H11.2141C11.3697 2.25168 11.5234 2.28368 11.6664 2.34483C11.8094 2.40599 11.9387 2.49506 12.0468 2.60685C12.1549 2.71863 12.2397 2.85087 12.296 2.99581C12.3524 3.14075 12.3792 3.29548 12.375 3.45094C12.3727 3.58272 12.3434 3.71262 12.2888 3.8326C12.2343 3.95258 12.1557 4.06008 12.0579 4.14844H12.0593Z" fill="var(--fill-0, #0088FF)"/>
</g>
</svg>
